<svg width="254" height="240" viewBox="0 0 254 240" fill="none" xmlns="http://www.w3.org/2000/svg">
<g id="Group 1">
<path id="Vector" fill-rule="evenodd" clip-rule="evenodd" d="M137.248 3.16817C171.308 -1.71224 210.89 -4.12668 235.029 20.4504C259.097 44.9552 253.017 84.1761 250.498 118.473C248.229 149.367 242.715 180.415 221.619 203.052C199.84 226.422 169.149 240.377 137.248 239.992C105.692 239.612 78.4447 222.086 54.8799 201.043C29.4358 178.322 -2.12546 174 1.1647 118.473C4.9846 54.0049 38.3809 66.6106 63.9237 44.9681C86.2472 26.0531 108.312 7.3143 137.248 3.16817Z" fill="#FBF9FF"/>
<rect id="Rectangle 1" x="72" y="106" width="111" height="86" rx="29" fill="white"/>
<path id="mouth (Stroke)" fill-rule="evenodd" clip-rule="evenodd" d="M115 165.6C115 163.833 116.433 162.4 118.2 162.4H135.8C137.567 162.4 139 163.833 139 165.6C139 167.367 137.567 168.8 135.8 168.8H118.2C116.433 168.8 115 167.367 115 165.6Z" fill="#9E70FB"/>
<g id="Union">
<path d="M156.541 137.062L156.701 136.902C157.469 136.126 158.621 135.854 159.653 136.214C159.733 136.23 159.813 136.262 159.893 136.294C161.037 136.774 161.581 138.094 161.101 139.238L161.013 139.438C160.925 139.654 160.821 139.862 160.701 140.054L160.381 140.558L159.997 141.094C159.269 142.046 158.389 142.878 157.397 143.55C156.765 143.99 156.093 144.366 155.389 144.67C154.605 145.014 153.789 145.286 152.949 145.47C152.069 145.646 151.181 145.734 150.285 145.75H149.661C149.607 145.75 149.526 145.742 149.431 145.732C149.299 145.718 149.141 145.702 148.997 145.702C148.512 145.659 148.132 145.589 147.738 145.517C147.697 145.509 147.655 145.502 147.613 145.494C146.773 145.31 145.957 145.038 145.173 144.694C144.469 144.39 143.797 144.014 143.165 143.574C141.837 142.67 140.717 141.494 139.893 140.118C139.765 139.902 139.645 139.678 139.541 139.446L139.421 139.206C138.989 138.302 139.253 137.214 140.045 136.606C141.133 135.75 142.677 135.806 143.701 136.742L143.901 136.942L144.405 137.406C144.821 137.79 145.261 138.142 145.733 138.454C146.029 138.638 146.349 138.83 146.693 139.006C147.053 139.198 147.421 139.366 147.805 139.51C148.197 139.63 148.597 139.726 149.005 139.806L149.565 139.878H150.269C150.693 139.878 151.109 139.846 151.525 139.782C151.933 139.702 152.333 139.606 152.725 139.486C153.101 139.358 153.469 139.206 153.821 139.03C154.165 138.854 154.477 138.67 154.781 138.478C155.085 138.286 155.349 138.094 155.581 137.918L156.133 137.462C156.277 137.342 156.413 137.206 156.541 137.062Z" fill="#9E70FB"/>
<path d="M110.945 136.823C111.625 136.111 112.673 135.887 113.585 136.263C113.689 136.287 113.793 136.327 113.889 136.367C115.009 136.863 115.521 138.183 115.025 139.303L114.945 139.463C114.873 139.695 114.761 139.911 114.625 140.103C114.545 140.263 114.465 140.423 114.305 140.583C114.225 140.663 114.165 140.763 114.105 140.863C114.045 140.963 113.985 141.063 113.905 141.143C113.609 141.583 113.257 141.983 112.865 142.343C112.433 142.847 111.921 143.279 111.345 143.623C110.713 144.063 110.049 144.439 109.345 144.743C108.577 145.103 107.777 145.375 106.945 145.543C106.073 145.703 105.193 145.783 104.305 145.783H103.665C103.636 145.783 103.574 145.772 103.496 145.758C103.361 145.735 103.177 145.703 103.025 145.703C102.545 145.623 102.065 145.543 101.665 145.463C100.841 145.279 100.033 145.015 99.265 144.663C98.561 144.359 97.897 143.983 97.265 143.543C96.729 143.159 96.217 142.727 95.745 142.263C95.065 141.599 94.473 140.847 93.985 140.023C93.865 139.815 93.753 139.607 93.665 139.383L93.585 139.143C93.185 138.247 93.449 137.191 94.225 136.583C95.329 135.751 96.873 135.815 97.905 136.743L98.545 137.383C98.6573 137.467 98.7892 137.571 98.9374 137.687C99.2116 137.903 99.5414 138.163 99.905 138.423C100.209 138.639 100.529 138.823 100.865 138.983C101.217 139.191 101.593 139.351 101.985 139.463C102.377 139.607 102.777 139.711 103.185 139.783C103.265 139.783 103.365 139.803 103.465 139.823C103.565 139.843 103.665 139.863 103.745 139.863H104.465C104.897 139.879 105.321 139.855 105.745 139.783C106.153 139.711 106.553 139.607 106.945 139.463C107.345 139.303 107.745 139.143 108.065 138.983C108.225 138.903 108.385 138.803 108.545 138.703C108.705 138.603 108.865 138.503 109.025 138.423C109.305 138.255 109.569 138.071 109.825 137.863C109.957 137.731 110.065 137.647 110.162 137.572C110.241 137.51 110.313 137.455 110.385 137.383L110.945 136.823Z" fill="#9E70FB"/>
</g>
<path id="icon" d="M91.9272 105.6V84C91.9272 64.1177 107.597 48 126.927 48C146.257 48 161.927 64.1177 161.927 84V105.6M112.927 192H140.927C153.974 192 160.497 192 165.642 189.808C172.503 186.885 177.954 181.278 180.796 174.221C182.927 168.929 182.927 162.219 182.927 148.8C182.927 135.381 182.927 128.671 180.796 123.379C177.954 116.322 172.503 110.715 165.642 107.792C160.497 105.6 153.974 105.6 140.927 105.6H112.927C99.8809 105.6 93.3577 105.6 88.2121 107.792C81.3513 110.715 75.9004 116.322 73.0586 123.379C70.9272 128.671 70.9272 135.381 70.9272 148.8C70.9272 162.219 70.9272 168.929 73.0586 174.221C75.9004 181.278 81.3513 186.885 88.2121 189.808C93.3577 192 99.8809 192 112.927 192Z" stroke="#9E70FB" stroke-width="5"/>
</g>
</svg>
