<svg width="254" height="240" viewBox="0 0 254 240" fill="none" xmlns="http://www.w3.org/2000/svg">
<g id="Group 1">
<path id="Vector" fill-rule="evenodd" clip-rule="evenodd" d="M137.248 3.16817C171.308 -1.71224 210.89 -4.12668 235.029 20.4504C259.098 44.9552 253.017 84.1761 250.498 118.473C248.229 149.367 242.715 180.415 221.619 203.052C199.84 226.422 169.149 240.377 137.248 239.992C105.692 239.612 78.4447 222.086 54.8799 201.043C29.4358 178.322 -2.12546 174 1.1647 118.473C4.9846 54.0049 38.3809 66.6106 63.9237 44.9681C86.2472 26.0531 108.312 7.3143 137.248 3.16817Z" fill="#FBF9FF"/>
<rect id="Rectangle 1" x="72" y="106" width="111" height="86" rx="29" fill="white"/>
<g id="Union">
<path d="M156.541 144.721L156.701 144.881C157.469 145.657 158.621 145.929 159.653 145.569C159.733 145.553 159.813 145.521 159.893 145.489C161.037 145.009 161.581 143.689 161.101 142.545L161.013 142.345C160.925 142.129 160.821 141.921 160.701 141.729L160.381 141.225L159.997 140.689C159.269 139.737 158.389 138.905 157.397 138.233C156.765 137.793 156.093 137.417 155.389 137.113C154.605 136.769 153.789 136.497 152.949 136.313C152.069 136.137 151.181 136.049 150.285 136.033H149.661C149.607 136.033 149.526 136.041 149.431 136.051C149.299 136.064 149.141 136.081 148.997 136.081C148.512 136.124 148.132 136.194 147.738 136.266C147.697 136.273 147.655 136.281 147.613 136.289C146.773 136.473 145.957 136.745 145.173 137.089C144.469 137.393 143.797 137.769 143.165 138.209C141.837 139.113 140.717 140.289 139.893 141.665C139.765 141.881 139.645 142.105 139.541 142.337L139.421 142.577C138.989 143.481 139.253 144.569 140.045 145.177C141.133 146.033 142.677 145.977 143.701 145.041L143.901 144.841L144.405 144.377C144.821 143.993 145.261 143.641 145.733 143.329C146.029 143.145 146.349 142.953 146.693 142.777C147.053 142.585 147.421 142.417 147.805 142.273C148.197 142.153 148.597 142.057 149.005 141.977L149.565 141.905H150.269C150.693 141.905 151.109 141.937 151.525 142.001C151.933 142.081 152.333 142.177 152.725 142.297C153.101 142.425 153.469 142.577 153.821 142.753C154.165 142.929 154.477 143.113 154.781 143.305C155.085 143.497 155.349 143.689 155.581 143.865L156.133 144.321C156.277 144.441 156.413 144.577 156.541 144.721Z" fill="#9E70FB"/>
<path d="M110.945 144.96C111.625 145.672 112.673 145.896 113.585 145.52C113.689 145.496 113.793 145.456 113.889 145.416C115.009 144.92 115.521 143.6 115.025 142.48L114.945 142.32C114.873 142.088 114.761 141.872 114.625 141.68C114.545 141.52 114.465 141.36 114.305 141.2C114.225 141.12 114.165 141.02 114.105 140.92C114.045 140.82 113.985 140.72 113.905 140.64C113.609 140.2 113.257 139.8 112.865 139.44C112.433 138.936 111.921 138.504 111.345 138.16C110.713 137.72 110.049 137.344 109.345 137.04C108.577 136.68 107.777 136.408 106.945 136.24C106.073 136.08 105.193 136 104.305 136H103.665C103.636 136 103.574 136.011 103.496 136.024C103.361 136.048 103.177 136.08 103.025 136.08C102.545 136.16 102.065 136.24 101.665 136.32C100.841 136.504 100.033 136.768 99.265 137.12C98.561 137.424 97.897 137.8 97.265 138.24C96.729 138.624 96.217 139.056 95.745 139.52C95.065 140.184 94.473 140.936 93.985 141.76C93.865 141.968 93.753 142.176 93.665 142.4L93.585 142.64C93.185 143.536 93.449 144.592 94.225 145.2C95.329 146.032 96.873 145.968 97.905 145.04L98.545 144.4C98.6573 144.316 98.7892 144.212 98.9374 144.095C99.2116 143.879 99.5414 143.62 99.905 143.36C100.209 143.144 100.529 142.96 100.865 142.8C101.217 142.592 101.593 142.432 101.985 142.32C102.377 142.176 102.777 142.072 103.185 142C103.265 142 103.365 141.98 103.465 141.96C103.565 141.94 103.665 141.92 103.745 141.92H104.465C104.897 141.904 105.321 141.928 105.745 142C106.153 142.072 106.553 142.176 106.945 142.32C107.345 142.48 107.745 142.64 108.065 142.8C108.225 142.88 108.385 142.98 108.545 143.08C108.705 143.18 108.865 143.28 109.025 143.36C109.305 143.528 109.569 143.712 109.825 143.92C109.957 144.052 110.065 144.136 110.162 144.211C110.241 144.272 110.313 144.328 110.385 144.4L110.945 144.96Z" fill="#9E70FB"/>
</g>
<path id="icon" d="M91.9272 105.6V84C91.9272 64.1177 107.597 48 126.927 48C146.257 48 161.927 64.1177 161.927 84V105.6M112.927 192H140.927C153.974 192 160.497 192 165.642 189.808C172.503 186.885 177.954 181.278 180.796 174.221C182.927 168.929 182.927 162.219 182.927 148.8C182.927 135.381 182.927 128.671 180.796 123.379C177.954 116.322 172.503 110.715 165.642 107.792C160.497 105.6 153.974 105.6 140.927 105.6H112.927C99.8809 105.6 93.3577 105.6 88.2121 107.792C81.3513 110.715 75.9005 116.322 73.0586 123.379C70.9272 128.671 70.9272 135.381 70.9272 148.8C70.9272 162.219 70.9272 168.929 73.0586 174.221C75.9005 181.278 81.3513 186.885 88.2121 189.808C93.3577 192 99.8809 192 112.927 192Z" stroke="#9E70FB" stroke-width="5"/>
<path id="mouth" d="M127.192 169.184C119.936 169.24 113.008 166.192 108.152 160.8C107.784 160.376 107.696 159.776 107.928 159.264C108.16 158.744 108.672 158.408 109.24 158.4C109.496 158.4 109.752 158.472 109.976 158.6C113.832 160.816 120.28 163.568 127.192 163.568H127.304C134.208 163.568 140.664 160.816 144.512 158.6C144.736 158.472 144.992 158.4 145.248 158.4C145.816 158.408 146.328 158.744 146.56 159.264C146.8 159.776 146.712 160.376 146.336 160.8C141.48 166.192 134.536 169.248 127.28 169.184" fill="#9E70FB"/>
</g>
</svg>
