<svg width="292" height="294" viewBox="0 0 292 294" fill="none" xmlns="http://www.w3.org/2000/svg">
<path fill-rule="evenodd" clip-rule="evenodd" d="M162.821 237.801C196.88 242.681 236.463 245.095 260.602 220.518C284.67 196.014 278.589 156.793 276.071 122.496C273.802 91.6021 268.288 60.5535 247.192 37.9172C225.412 14.5472 194.722 0.592209 162.821 0.976486C131.264 1.35661 104.017 18.8829 80.4527 39.9258C55.0085 62.6469 23.4473 66.9688 26.7375 122.496C30.5574 186.964 63.9537 174.358 89.4964 196.001C111.82 214.916 133.885 233.654 162.821 237.801Z" fill="#F7F3FE"/>
<path fill-rule="evenodd" clip-rule="evenodd" d="M82.5 70.9688C82.5 61.5799 90.1112 53.9688 99.5 53.9688H129.5C138.889 53.9688 146.5 61.5799 146.5 70.9688V130.969C146.5 140.358 138.889 147.969 129.5 147.969H99.5C90.1112 147.969 82.5 140.358 82.5 130.969V70.9688ZM158.5 70.9688C158.5 61.5799 166.111 53.9688 175.5 53.9688H205.5C214.889 53.9688 222.5 61.5799 222.5 70.9688V190.969C222.5 200.358 214.889 207.969 205.5 207.969H175.5C166.111 207.969 158.5 200.358 158.5 190.969V70.9688Z" fill="white"/>
<path d="M84.5 70.9688C84.5 62.6845 91.2157 55.9688 99.5 55.9688H129.5C137.784 55.9688 144.5 62.6845 144.5 70.9688V130.969C144.5 139.253 137.784 145.969 129.5 145.969H99.5C91.2157 145.969 84.5 139.253 84.5 130.969V70.9688Z" stroke="#9E70FB" stroke-width="4"/>
<path d="M160.5 70.9688C160.5 62.6845 167.216 55.9688 175.5 55.9688H205.5C213.784 55.9688 220.5 62.6845 220.5 70.9688V190.969C220.5 199.253 213.784 205.969 205.5 205.969H175.5C167.216 205.969 160.5 199.253 160.5 190.969V70.9688Z" stroke="#9E70FB" stroke-width="4"/>
</svg>
