<svg width="368" height="294" viewBox="0 0 368 294" fill="none" xmlns="http://www.w3.org/2000/svg">
<path fill-rule="evenodd" clip-rule="evenodd" d="M173.758 3.41817C139.718 -1.46224 100.158 -3.87668 76.033 20.7004C51.9787 45.2052 58.0561 84.4261 60.5733 118.723C62.8409 149.617 68.3518 180.665 89.4354 203.302C111.202 226.672 141.875 240.627 173.758 240.242C205.296 239.862 232.527 222.336 256.078 201.293C281.508 178.572 313.051 174.25 309.763 118.723C305.945 54.2549 272.568 66.8606 247.04 45.2181C224.729 26.3031 202.677 7.5643 173.758 3.41817Z" fill="#F7F3FE"/>
<path fill-rule="evenodd" clip-rule="evenodd" d="M107 70.25C107 60.8612 114.611 53.25 124 53.25C133.389 53.25 141 60.8612 141 70.25C141 79.6388 133.389 87.25 124 87.25C114.611 87.25 107 79.6388 107 70.25ZM157 70.25C157 69.1454 157.895 68.25 159 68.25H259C260.105 68.25 261 69.1454 261 70.25C261 71.3546 260.105 72.25 259 72.25H159C157.895 72.25 157 71.3546 157 70.25ZM107 120.25C107 110.861 114.611 103.25 124 103.25C133.389 103.25 141 110.861 141 120.25C141 129.639 133.389 137.25 124 137.25C114.611 137.25 107 129.639 107 120.25ZM157 120.25C157 119.145 157.895 118.25 159 118.25H259C260.105 118.25 261 119.145 261 120.25C261 121.355 260.105 122.25 259 122.25H159C157.895 122.25 157 121.355 157 120.25ZM107 170.25C107 160.861 114.611 153.25 124 153.25C133.389 153.25 141 160.861 141 170.25C141 179.639 133.389 187.25 124 187.25C114.611 187.25 107 179.639 107 170.25ZM157 170.25C157 169.145 157.895 168.25 159 168.25H259C260.105 168.25 261 169.145 261 170.25C261 171.355 260.105 172.25 259 172.25H159C157.895 172.25 157 171.355 157 170.25Z" fill="white"/>
<path d="M159 70.25H259M159 120.25H259M159 170.25H259M124 185.25C115.716 185.25 109 178.534 109 170.25C109 161.966 115.716 155.25 124 155.25C132.284 155.25 139 161.966 139 170.25C139 178.534 132.284 185.25 124 185.25ZM124 135.25C115.716 135.25 109 128.534 109 120.25C109 111.966 115.716 105.25 124 105.25C132.284 105.25 139 111.966 139 120.25C139 128.534 132.284 135.25 124 135.25ZM124 85.25C115.716 85.25 109 78.5343 109 70.25C109 61.9657 115.716 55.25 124 55.25C132.284 55.25 139 61.9657 139 70.25C139 78.5343 132.284 85.25 124 85.25Z" stroke="#9E70FB" stroke-width="5" stroke-linecap="round" stroke-linejoin="round"/>
</svg>
