<svg width="24" height="24" viewBox="0 0 24 24" fill="none" xmlns="http://www.w3.org/2000/svg">
<g id="outline-settings-02">
<g id="icon">
<path d="M21.5 10.0574C22.1712 11.2655 22.1712 12.7345 21.5 13.9426L18.7222 18.9426C18.0167 20.2124 16.6783 21 15.2256 21H8.77778C7.32511 21 5.98663 20.2124 5.28115 18.9426L2.50337 13.9426C1.83221 12.7345 1.83221 11.2655 2.50337 10.0574L5.28115 5.05743C5.98663 3.78757 7.32511 3 8.77778 3L15.2256 3C16.6783 3 18.0167 3.78757 18.7222 5.05743L21.5 10.0574Z" stroke="#817D8F" stroke-width="2"/>
<path d="M15.5 12C15.5 13.933 13.933 15.5 12 15.5C10.067 15.5 8.5 13.933 8.5 12C8.5 10.067 10.067 8.5 12 8.5C13.933 8.5 15.5 10.067 15.5 12Z" stroke="#817D8F" stroke-width="2"/>
</g>
</g>
</svg>
