<svg width="24" height="24" viewBox="0 0 24 24" fill="none" xmlns="http://www.w3.org/2000/svg">
<g id="outline-headphones-01">
<path id="icon" d="M3 16V12C3 7.02944 7.02944 3 12 3C16.9706 3 21 7.02944 21 12V16M5 21C3.89543 21 3 20.1046 3 19V15C3 13.8954 3.89543 13 5 13C6.10457 13 7 13.8954 7 15V19C7 20.1046 6.10457 21 5 21ZM19 21C17.8954 21 17 20.1046 17 19V15C17 13.8954 17.8954 13 19 13C20.1046 13 21 13.8954 21 15V19C21 20.1046 20.1046 21 19 21Z" stroke="#817D8F" stroke-width="2" stroke-linejoin="round"/>
</g>
</svg>
