<svg width="24" height="24" viewBox="0 0 24 24" fill="none" xmlns="http://www.w3.org/2000/svg">
<g id="outline-user-02-multiple">
<path id="icon" d="M1 21V19C1 16.7909 2.79086 15 5 15H13C15.2091 15 17 16.7909 17 19V21M23 21V19C23 16.7909 21.2091 15 19 15H18.75M14.7461 3.00793C14.8301 3.00267 14.9147 3 15 3C17.2091 3 19 4.79086 19 7C19 9.20914 17.2091 11 15 11C14.9147 11 14.8301 10.9973 14.7461 10.9921M13 7C13 9.20914 11.2091 11 9 11C6.79086 11 5 9.20914 5 7C5 4.79086 6.79086 3 9 3C11.2091 3 13 4.79086 13 7Z" stroke="#817D8F" stroke-width="2" stroke-linecap="round"/>
</g>
</svg>
