<svg width="0" height="0" class="hidden">
  <symbol  xmlns="http://www.w3.org/2000/svg" viewBox="0 0 24 24" id="members">
    <path d="M8.58 2.043c-1.692.132-3.264 1.2-4.03 2.737a4.982 4.982 0 0 0 0 4.44c.222.447.483.814.849 1.196.979 1.024 2.202 1.55 3.601 1.55s2.622-.526 3.601-1.55c.902-.942 1.365-2.102 1.365-3.416 0-1.399-.526-2.622-1.55-3.601-1.033-.989-2.391-1.468-3.836-1.356m6.03-.003c-.568.084-.956.658-.81 1.199.07.259.256.495.493.624.187.102.259.115.767.142.686.037.819.068 1.3.304.325.159.436.242.762.569.326.326.41.438.569.762.225.457.309.829.309 1.365a2.8 2.8 0 0 1-.311 1.355c-.158.326-.239.434-.567.762-.326.327-.437.41-.762.569-.481.236-.614.267-1.3.304-.508.027-.58.04-.767.142a.963.963 0 0 0-.188 1.582c.252.221.377.255.936.25 1.371-.011 2.595-.545 3.56-1.553.902-.942 1.365-2.102 1.365-3.416 0-1.399-.526-2.622-1.55-3.601-.884-.846-1.971-1.307-3.236-1.371a3.731 3.731 0 0 0-.57.012M9.687 4.061c.163.034.462.144.673.248a3.067 3.067 0 0 1 1.331 1.331c.225.457.309.829.309 1.365a2.8 2.8 0 0 1-.311 1.355c-.158.326-.239.434-.567.762-.326.326-.438.41-.762.569A2.802 2.802 0 0 1 9 10c-.531 0-.904-.085-1.36-.309-.324-.159-.436-.243-.762-.569-.326-.326-.41-.438-.569-.762A2.802 2.802 0 0 1 6 7c0-.531.085-.904.309-1.36.159-.324.243-.436.569-.762.325-.326.438-.41.762-.57.209-.103.497-.212.64-.243.353-.077 1.048-.079 1.407-.004M4.58 14.04a5.01 5.01 0 0 0-4.299 3.392c-.231.693-.257.936-.259 2.428-.002 1.343-.001 1.362.091 1.548.175.355.499.56.887.56a.964.964 0 0 0 .887-.56c.09-.183.094-.229.118-1.608.015-.875.042-1.489.071-1.6.026-.099.131-.351.233-.56.159-.325.242-.436.569-.762.326-.326.438-.41.762-.569C4.298 15.985 4.043 16 9 16c4.957 0 4.702-.015 5.36.309.324.159.436.243.762.569.327.326.41.437.569.762.102.209.207.461.233.56.029.111.056.725.071 1.6.024 1.379.028 1.425.118 1.608.175.355.499.56.887.56a.964.964 0 0 0 .887-.56c.092-.186.093-.205.091-1.548-.002-1.13-.014-1.421-.073-1.72-.198-1.013-.622-1.843-1.304-2.556-.734-.767-1.56-1.229-2.631-1.47-.387-.088-.419-.088-4.71-.097-2.376-.004-4.482.006-4.68.023m13.993.001a.887.887 0 0 0-.519.286c-.204.217-.271.384-.271.673 0 .297.087.501.303.708.211.202.391.255.991.294.678.044.811.076 1.283.307.325.159.436.242.762.569.327.326.41.437.569.762.102.209.207.461.233.56.029.111.056.725.071 1.6.024 1.379.028 1.425.118 1.608.175.355.499.56.887.56a.964.964 0 0 0 .887-.56c.092-.186.093-.205.091-1.548-.002-1.495-.028-1.735-.262-2.436a4.994 4.994 0 0 0-3.747-3.3c-.456-.09-1.158-.132-1.396-.083" fill-rule="evenodd" ></path>
  </symbol>

<symbol  xmlns="http://www.w3.org/2000/svg" viewBox="0 0 24 24" id="settings">
    <path d="M8.339 2.038c-1.459.134-2.856.948-3.649 2.128-.186.277-2.89 5.115-3.171 5.674-.659 1.312-.659 3.008 0 4.32.281.559 2.985 5.397 3.171 5.674.685 1.018 1.822 1.768 3.113 2.054l.417.092h3.76c4.161 0 4.021.008 4.84-.265.974-.325 1.945-1.06 2.506-1.898.197-.295 2.845-5.041 3.133-5.616A4.609 4.609 0 0 0 22.973 12c0-.826-.153-1.479-.514-2.201-.288-.575-2.936-5.321-3.133-5.616-.412-.615-1.11-1.233-1.798-1.593a5.046 5.046 0 0 0-1.318-.476c-.384-.087-.446-.088-3.97-.096-1.969-.005-3.724.004-3.901.02m7.521 2.017c.302.066.676.217.967.391.293.175.725.595.909.884.08.126.799 1.405 1.597 2.842 1.088 1.959 1.475 2.692 1.549 2.93.085.276.098.395.098.898s-.013.622-.098.898c-.074.238-.461.971-1.549 2.93a191.73 191.73 0 0 1-1.597 2.842c-.296.464-.826.893-1.385 1.121-.512.208-.47.206-4.355.208-3.508.001-3.633-.002-3.94-.08-.748-.191-1.404-.649-1.786-1.246-.283-.442-2.983-5.344-3.081-5.593a3.133 3.133 0 0 1 .027-2.23c.098-.232 2.732-5.008 2.996-5.43A3.005 3.005 0 0 1 8.04 4.083c.287-.075.456-.079 3.94-.079 2.848-.001 3.692.01 3.88.051m-4.593 3.526c-1.869.314-3.384 1.84-3.688 3.717-.391 2.41 1.293 4.729 3.719 5.123 2.973.482 5.605-2.15 5.123-5.123-.395-2.434-2.737-4.123-5.154-3.717m1.493 2.016c.753.234 1.41.897 1.65 1.663.07.22.088.378.088.74s-.018.52-.088.74a2.617 2.617 0 0 1-1.67 1.67c-.396.125-1.084.125-1.48 0a2.617 2.617 0 0 1-1.67-1.67c-.125-.396-.125-1.084 0-1.48.274-.876 1.061-1.58 1.944-1.739.309-.056.926-.018 1.226.076" fill-rule="evenodd" ></path>
  </symbol>

  <symbol fill="none" xmlns="http://www.w3.org/2000/svg" viewBox="0 0 24 24" id="members">
    <g id="outline-user-02-multiple">
      <path id="icon" d="M1 21V19C1 16.7909 2.79086 15 5 15H13C15.2091 15 17 16.7909 17 19V21M23 21V19C23 16.7909 21.2091 15 19 15H18.75M14.7461 3.00793C14.8301 3.00267 14.9147 3 15 3C17.2091 3 19 4.79086 19 7C19 9.20914 17.2091 11 15 11C14.9147 11 14.8301 10.9973 14.7461 10.9921M13 7C13 9.20914 11.2091 11 9 11C6.79086 11 5 9.20914 5 7C5 4.79086 6.79086 3 9 3C11.2091 3 13 4.79086 13 7Z" stroke="#817D8F" stroke-width="2" stroke-linecap="round"></path>
    </g>
  </symbol>
<symbol  xmlns="http://www.w3.org/2000/svg" viewBox="0 0 24 24" id="tasks">
    <path d="M3.636 1.044c-1.178.12-2.265 1.087-2.538 2.257-.085.364-.085 1.034 0 1.398.241 1.035 1.168 1.962 2.203 2.203.364.085 1.034.085 1.398 0 1.035-.241 1.962-1.168 2.203-2.203.085-.364.085-1.034 0-1.398-.192-.825-.841-1.617-1.639-2.001-.475-.228-1.034-.316-1.627-.256m.785 2.031c.367.166.577.504.577.925 0 .593-.405.998-.998.998S3.002 4.593 3.002 4s.405-.998.998-.998c.166 0 .318.026.421.073M9.8 3.044c-.358.07-.688.406-.755.766a.982.982 0 0 0 .798 1.151c.147.027 2.293.037 6.3.03 6.725-.012 6.191.01 6.507-.268a.976.976 0 0 0 0-1.446c-.316-.278.224-.256-6.55-.263-3.435-.003-6.199.01-6.3.03m-6.164 6c-1.178.12-2.262 1.084-2.539 2.257-.085.362-.085 1.031.001 1.398.242 1.035 1.168 1.962 2.203 2.203.364.085 1.034.085 1.398 0 1.035-.241 1.962-1.168 2.203-2.203.085-.364.085-1.034 0-1.398-.192-.825-.841-1.617-1.639-2.001-.475-.228-1.034-.316-1.627-.256m.785 2.031c.367.166.577.504.577.925 0 .593-.405.998-.998.998s-.998-.405-.998-.998.405-.998.998-.998c.166 0 .318.026.421.073m5.379-.031c-.358.07-.688.406-.755.766a.982.982 0 0 0 .798 1.151c.147.027 2.293.037 6.3.03 6.725-.012 6.191.01 6.507-.268a.976.976 0 0 0 0-1.446c-.316-.278.224-.256-6.55-.263-3.435-.003-6.199.01-6.3.03m-6.164 6c-1.178.12-2.262 1.084-2.539 2.257-.085.362-.085 1.031.001 1.398.242 1.035 1.168 1.962 2.203 2.203.364.085 1.034.085 1.398 0 1.035-.241 1.962-1.168 2.203-2.203.085-.364.085-1.034 0-1.398-.192-.825-.841-1.617-1.639-2.001-.475-.228-1.034-.316-1.627-.256m.785 2.031c.367.166.577.504.577.925 0 .593-.405.998-.998.998s-.998-.405-.998-.998.405-.998.998-.998c.166 0 .318.026.421.073m5.379-.031c-.358.07-.688.406-.755.766a.982.982 0 0 0 .798 1.151c.147.027 2.293.037 6.3.03 6.725-.012 6.191.01 6.507-.268a.976.976 0 0 0 0-1.446c-.316-.278.224-.256-6.55-.263-3.435-.003-6.199.01-6.3.03" fill-rule="evenodd" ></path>
  </symbol>

  <symbol  xmlns="http://www.w3.org/2000/svg" viewBox="0 0 24 24" id="stories">

<path d="M3.636 1.041c-1.187.132-2.238 1.066-2.545 2.26-.066.26-.071.585-.071 4.699s.005 4.439.071 4.699a3.138 3.138 0 0 0 2.21 2.21c.253.064.506.071 2.699.071 2.193 0 2.446-.007 2.699-.071a3.138 3.138 0 0 0 2.21-2.21c.066-.26.071-.585.071-4.699s-.005-4.439-.071-4.699a3.16 3.16 0 0 0-1.645-2c-.567-.273-.558-.272-3.064-.283-1.243-.006-2.397.005-2.564.023m12 0c-1.187.132-2.238 1.066-2.545 2.26-.067.264-.071.744-.071 8.699s.004 8.435.071 8.699a3.138 3.138 0 0 0 2.21 2.21c.253.064.506.071 2.699.071 2.193 0 2.446-.007 2.699-.071a3.138 3.138 0 0 0 2.21-2.21c.067-.264.071-.744.071-8.699s-.004-8.435-.071-8.699a3.16 3.16 0 0 0-1.645-2c-.567-.273-.558-.272-3.064-.283-1.243-.006-2.397.005-2.564.023M8.421 3.075c.205.093.411.299.504.504.069.153.073.381.073 4.421s-.004 4.268-.073 4.421a1.099 1.099 0 0 1-.504.504c-.15.068-.318.073-2.421.073-2.103 0-2.271-.005-2.421-.073a1.099 1.099 0 0 1-.504-.504c-.069-.153-.073-.381-.073-4.421s.004-4.268.073-4.421c.093-.205.299-.411.504-.504.15-.068.318-.073 2.421-.073 2.103 0 2.271.005 2.421.073m12 0c.205.093.411.299.504.504.07.154.073.507.073 8.421s-.003 8.267-.073 8.421a1.099 1.099 0 0 1-.504.504c-.15.068-.318.073-2.421.073-2.103 0-2.271-.005-2.421-.073a1.099 1.099 0 0 1-.504-.504c-.07-.154-.073-.507-.073-8.421s.003-8.267.073-8.421c.093-.205.299-.411.504-.504.15-.068.318-.073 2.421-.073 2.103 0 2.271.005 2.421.073" fill-rule="evenodd" ></path>
  </symbol>
  <symbol  xmlns="http://www.w3.org/2000/svg" viewBox="0 0 24 24" id="projects">
    <path d="M7.58 1.041a5.009 5.009 0 0 0-4.299 3.391c-.277.833-.261.358-.261 7.568 0 7.217-.017 6.734.264 7.576a5.012 5.012 0 0 0 3.148 3.143c.816.272.589.261 5.568.261 4.188 0 4.525-.005 4.86-.073 1.025-.206 1.845-.625 2.556-1.306.79-.756 1.268-1.636 1.491-2.741.068-.337.073-.701.073-5.7 0-4.403-.01-5.368-.055-5.5-.044-.13-.653-.76-3.2-3.311-2.276-2.281-3.195-3.176-3.325-3.24l-.18-.089-3.14-.005c-1.727-.003-3.302.009-3.5.026m5.431 3.689c.021 1.914.03 1.993.29 2.534a3.204 3.204 0 0 0 1.435 1.435c.541.26.62.269 2.534.29l1.73.019v4.698c0 5.295.017 4.979-.311 5.654-.158.326-.239.434-.567.762-.326.326-.438.41-.762.569-.658.324-.403.309-5.36.309-4.957 0-4.702.015-5.36-.309-.324-.159-.436-.243-.762-.569-.326-.326-.41-.438-.569-.762C4.979 18.689 5 19.192 5 12s-.021-6.689.309-7.36c.159-.324.243-.436.569-.762.325-.326.438-.41.762-.57.62-.305.549-.299 3.626-.304L12.992 3l.019 1.73m3.679 2.261c-1.027.013-1.13-.006-1.39-.259-.281-.273-.298-.353-.299-1.412L15 4.38l1.3 1.3 1.301 1.3-.911.011M8.8 12.043a1.02 1.02 0 0 0-.755.767.982.982 0 0 0 .802 1.151c.147.027 1.3.038 3.3.03 3.391-.012 3.195.003 3.503-.268a.976.976 0 0 0 0-1.446c-.309-.271-.105-.256-3.55-.263-1.716-.004-3.201.01-3.3.029m0 4c-.099.02-.251.086-.339.148a.974.974 0 0 0 .392 1.771c.147.027.808.038 1.8.031 1.545-.013 1.57-.014 1.755-.106a.964.964 0 0 0 .56-.887.964.964 0 0 0-.56-.887c-.186-.092-.201-.093-1.808-.1-.891-.004-1.701.01-1.8.03" fill-rule="evenodd" ></path>
  </symbol>
   <symbol  xmlns="http://www.w3.org/2000/svg" viewBox="0 0 24 24" id="support">
    <path d="M11.336 2.042A10.003 10.003 0 0 0 4.318 5.64c-1.222 1.48-1.944 3.14-2.226 5.12-.065.453-.072.88-.072 4.58 0 3.788.005 4.1.071 4.359.272 1.059 1.178 1.962 2.21 2.203.364.085 1.034.085 1.398 0 1.032-.241 1.938-1.144 2.21-2.203.064-.253.071-.506.071-2.699 0-2.193-.007-2.446-.071-2.699-.272-1.059-1.178-1.962-2.21-2.203-.361-.084-1.034-.085-1.391-.002-.15.035-.283.064-.296.064-.044 0 .023-1.178.085-1.52.406-2.211 1.601-4.055 3.435-5.296.919-.622 2.025-1.057 3.228-1.271.406-.072 2.074-.072 2.48 0a8.428 8.428 0 0 1 2.368.772c2.26 1.129 3.827 3.243 4.295 5.795.062.342.129 1.52.085 1.52-.013 0-.146-.029-.296-.064-.357-.083-1.03-.082-1.391.002-1.032.241-1.938 1.144-2.21 2.203-.064.253-.071.506-.071 2.699 0 2.193.007 2.446.071 2.699.272 1.059 1.178 1.962 2.21 2.203.364.085 1.034.085 1.398 0 1.032-.241 1.938-1.144 2.21-2.203.066-.259.071-.571.071-4.359 0-4.463.001-4.433-.245-5.54-.674-3.028-2.813-5.633-5.681-6.917a10.102 10.102 0 0 0-4.718-.841M5.421 14.075c.205.093.411.299.504.504.068.15.073.318.073 2.421 0 2.521.01 2.426-.281 2.717-.197.197-.412.281-.717.281s-.52-.084-.717-.281c-.291-.291-.281-.196-.281-2.717s-.01-2.426.281-2.717c.197-.197.412-.281.717-.281.166 0 .318.026.421.073m14 0c.088.04.222.134.296.208.291.291.281.196.281 2.717s.01 2.426-.281 2.717c-.197.197-.412.281-.717.281s-.52-.084-.717-.281c-.291-.291-.281-.196-.281-2.717s-.01-2.426.281-2.717c.197-.197.412-.281.717-.281.166 0 .318.026.421.073" fill-rule="evenodd" ></path>
  </symbol>

<symbol xmlns="http://www.w3.org/2000/svg" viewBox="0 0 24 24" id="log-out">

<path d="M10.789 2.044a.895.895 0 0 0-.517.308.969.969 0 0 0 .003 1.3c.08.088.226.198.325.244.177.083.237.084 3.6.104l3.42.02.32.113a3.11 3.11 0 0 1 1.966 2.047c.07.228.074.508.074 5.82s-.004 5.592-.074 5.82a3.11 3.11 0 0 1-1.966 2.047l-.32.113-3.42.02c-3.363.02-3.423.021-3.6.104a.983.983 0 0 0-.325 1.548c.08.088.226.198.325.244.177.083.234.084 3.2.096 1.9.008 3.214-.004 3.544-.03 1.27-.104 2.306-.575 3.175-1.443.723-.724 1.131-1.488 1.37-2.567l.091-.412V6.46l-.091-.412c-.239-1.079-.647-1.843-1.37-2.567-.853-.853-1.892-1.332-3.119-1.44-.567-.05-6.399-.047-6.611.003m-4 4.999c-.084.02-.201.062-.26.094-.06.032-1.075 1.026-2.255 2.21C1.977 11.653 2.026 11.595 2.026 12c0 .405-.049.347 2.248 2.654 1.595 1.601 2.191 2.175 2.321 2.234.11.05.26.08.405.08.548 0 .964-.407.969-.948.003-.416-.001-.423-1.342-1.769l-1.244-1.25 5.419-.01c5.4-.011 5.419-.011 5.598-.095a.983.983 0 0 0 .325-1.548 1.232 1.232 0 0 0-.325-.244c-.179-.084-.198-.084-5.598-.095l-5.419-.01 1.244-1.25c1.342-1.348 1.345-1.352 1.342-1.772-.006-.608-.596-1.075-1.18-.934" fill-rule="evenodd" />
  </symbol>
  <symbol xmlns="http://www.w3.org/2000/svg" viewBox="0 0 24 24" id="chevron-right">
<path id="icon" d="M10.5 7L15.5 12L10.5 17" stroke="#A29FB2" stroke-width="2" stroke-linecap="round" stroke-linejoin="round" fill="white"/>
  </symbol>
  <symbol xmlns="http://www.w3.org/2000/svg" viewBox="0 0 24 24" id="password-eye">
    <path d="M11.378 4.039C8.866 4.259 6.213 5.8 3.729 8.48c-1.187 1.281-1.575 1.993-1.689 3.1-.128 1.236.213 2.228 1.143 3.326 1.342 1.585 3.076 3.057 4.602 3.907a9.72 9.72 0 0 0 3.075 1.092c.552.096 1.728.096 2.28 0 .791-.139 1.66-.408 2.395-.741 1.391-.632 3.234-2.031 4.592-3.487 1.136-1.218 1.525-1.825 1.752-2.734.081-.321.088-.427.07-1.06-.022-.81-.079-1.067-.371-1.671-.214-.443-.559-.909-1.19-1.605-1.829-2.022-3.846-3.462-5.788-4.132-1.042-.36-2.239-.522-3.222-.436m.902 2c.319.021.715.066.88.1 1.24.258 2.694 1.043 4.1 2.214.518.431 1.836 1.768 2.136 2.167.79 1.047.793 1.909.013 2.942-.319.423-1.39 1.527-1.947 2.009-1.545 1.334-3.072 2.162-4.482 2.432-.489.093-1.471.093-1.96 0-1.775-.339-3.678-1.526-5.555-3.466-.96-.993-1.29-1.472-1.411-2.051-.106-.512.008-1.058.323-1.546.31-.479 1.092-1.331 1.903-2.074C7.991 7.2 9.616 6.32 11.277 6.061c.435-.068.332-.065 1.003-.022m-.763 2.004c-1.047.09-2.202.793-2.825 1.717-1.154 1.713-.803 4.058.799 5.339 1.237.99 2.86 1.166 4.288.464 1.068-.525 1.813-1.465 2.102-2.649.492-2.024-.702-4.101-2.721-4.733-.438-.137-1.059-.189-1.643-.138m.848 1.997c.78.145 1.454.838 1.598 1.642.177.989-.493 1.993-1.505 2.257-1.329.346-2.664-.898-2.421-2.257.196-1.097 1.251-1.842 2.328-1.642" fill-rule="evenodd"></path>
</symbol>
<symbol xmlns="http://www.w3.org/2000/svg" viewBox="0 0 24 24" id="password-eye-off">
    <path d="M2.71 2.055a1.167 1.167 0 0 0-.542.435c-.097.147-.108.201-.108.51 0 .32.009.36.12.522.066.096.808.87 1.648 1.719l1.529 1.545-.269.224c-.437.365-2.132 2.103-2.398 2.459-.338.454-.525.802-.681 1.266-.419 1.252-.157 2.747.662 3.777.609.766 1.743 1.908 2.614 2.635 2.8 2.335 5.597 3.241 8.292 2.687 1.049-.216 1.897-.561 3.394-1.383.017-.01.785.729 1.705 1.642.921.912 1.75 1.71 1.843 1.771.145.096.209.112.435.11.435-.005.767-.203.93-.554.09-.194.1-.604.02-.796-.078-.188-4.099-4.254-11.821-11.954-3.77-3.761-6.55-6.503-6.636-6.546-.206-.106-.55-.137-.737-.069m7.865 2.061c-.77.139-1.35.368-1.556.613-.109.129-.219.459-.219.657 0 .241.151.561.336.713.35.287.619.315 1.219.125.487-.154.92-.195 1.821-.174.73.017.846.03 1.264.139 1.399.366 2.893 1.22 4.26 2.435.583.518 1.729 1.676 1.956 1.977.397.526.579 1.076.522 1.579-.061.533-.272.948-.765 1.501-.571.639-.691.845-.691 1.179 0 .485.467.976.93.979.38.002.501-.064.949-.515.801-.806 1.257-1.523 1.454-2.284a4.114 4.114 0 0 0-.694-3.498c-.551-.735-1.816-2.01-2.781-2.802-1.603-1.316-3.263-2.174-4.96-2.563-.449-.103-.549-.111-1.56-.122-.913-.011-1.143-.002-1.485.061m-2.14 6.094c-.774 1.533-.463 3.398.772 4.633a3.992 3.992 0 0 0 3.338 1.114 4.293 4.293 0 0 0 1.218-.379l.264-.132.751.752.752.753-.175.103c-.512.299-1.573.691-2.252.83-.581.119-1.635.119-2.223-.002-1.288-.263-2.668-.953-3.927-1.962-1.001-.803-2.317-2.107-2.755-2.73-.581-.827-.509-1.752.204-2.65.306-.385 1.47-1.558 1.997-2.014l.379-.327.888.887.888.888-.119.236m2.858 2.507c.631.636 1.147 1.173 1.147 1.195 0 .047-.194.088-.42.088-.964 0-1.831-.744-1.985-1.706-.051-.324-.018-.734.061-.734.028 0 .566.52 1.197 1.157" fill-rule="evenodd"></path>
</symbol>
<symbol xmlns="http://www.w3.org/2000/svg" viewBox="0 0 24 20" id="flag">
    <path fill-rule="evenodd" clip-rule="evenodd"
      d="M4 1C4.55228 1 5 1.44772 5 2V2.64216C5.15878 2.5976 5.32754 2.55189 5.50381 2.5064C6.52038 2.24406 7.88712 1.96176 9.03369 2.0004C10.5048 2.04999 11.5652 2.62582 12.4333 3.09719C12.4479 3.10514 12.4625 3.11306 12.477 3.12095C13.3666 3.60379 14.0611 3.96762 15.0337 4.0004C15.8773 4.02884 17.0105 3.81114 17.9964 3.55672C18.4759 3.43298 18.8967 3.30697 19.1973 3.21199C19.3473 3.1646 19.4666 3.12516 19.5474 3.09793C19.5878 3.08432 19.6185 3.07377 19.6386 3.06682L19.6606 3.05917L19.6654 3.05749C19.9714 2.94904 20.3118 2.99572 20.577 3.18309C20.8423 3.37049 21 3.67505 21 3.99984V14.9998C21 15.4233 20.7333 15.8009 20.3342 15.9424L20.3303 15.9437L20.322 15.9466L20.2928 15.9568C20.2678 15.9654 20.232 15.9778 20.1862 15.9932C20.0946 16.024 19.9632 16.0675 19.7999 16.119C19.4739 16.2221 19.018 16.3586 18.4962 16.4933C17.4796 16.7556 16.1129 17.0379 14.9663 16.9993C13.4952 16.9497 12.4348 16.3739 11.5667 15.9025C11.5521 15.8945 11.5375 15.8866 11.523 15.8787C10.6334 15.3959 9.9389 15.0321 8.96631 14.9993C8.12272 14.9708 6.98946 15.1885 6.00357 15.443C5.62139 15.5416 5.27646 15.6417 5 15.7263V21.9998C5 22.5521 4.55228 22.9998 4 22.9998C3.44772 22.9998 3 22.5521 3 21.9998V2C3 1.44772 3.44772 1 4 1Z" />
  </symbol>
  <symbol xmlns="http://www.w3.org/2000/svg" viewBox="0 0 24 24" id="check">
    <path
      d="M19.642 6.269c-.194.069-.063-.057-6.58 6.342l-3.239 3.18-.747-.726a808.896 808.896 0 0 1-2.603-2.55c-1.206-1.185-1.919-1.857-2.035-1.917-.241-.125-.629-.128-.863-.007-.381.197-.556.487-.553.912.002.233.022.317.109.466.059.1.465.53.903.956.437.426 1.65 1.614 2.694 2.639 1.771 1.74 1.918 1.874 2.201 2.014a1.946 1.946 0 0 0 1.788-.002c.274-.135.405-.25 1.363-1.195.583-.575 2.617-2.572 4.52-4.437 4.456-4.368 4.26-4.168 4.338-4.429.12-.405.042-.728-.244-1.015a.988.988 0 0 0-1.052-.231"
      fill-rule="evenodd" />
  </symbol>
    <symbol xmlns="http://www.w3.org/2000/svg" viewBox="0 0 24 24" id="three-dots">
    <path
      d="M7 12C7 13.1046 6.10457 14 5 14C3.89543 14 3 13.1046 3 12C3 10.8954 3.89543 10 5 10C6.10457 10 7 10.8954 7 12Z" />
    <path
      d="M14 12C14 13.1046 13.1046 14 12 14C10.8954 14 10 13.1046 10 12C10 10.8954 10.8954 10 12 10C13.1046 10 14 10.8954 14 12Z" />
    <path
      d="M21 12C21 13.1046 20.1046 14 19 14C17.8954 14 17 13.1046 17 12C17 10.8954 17.8954 10 19 10C20.1046 10 21 10.8954 21 12Z" />
  </symbol>
  <symbol xmlns="http://www.w3.org/2000/svg" viewBox="0 0 24 24" id="edit">
    <path fill-rule="evenodd" clip-rule="evenodd"
      d="M17.5633 2.43662C16.9812 1.85446 16.0373 1.85446 15.4552 2.43662L2.5128 15.379C2.47855 15.4132 2.4552 15.4568 2.4457 15.5043L2.0054 17.7058C1.97107 17.8775 2.12243 18.0289 2.29411 17.9945L4.49561 17.5542C4.5431 17.5447 4.58673 17.5214 4.62098 17.4871L17.5633 4.5448C18.1455 3.96264 18.1455 3.01878 17.5633 2.43662ZM14.0409 1.0224C15.4041 -0.340801 17.6143 -0.340802 18.9775 1.0224C20.3407 2.38561 20.3407 4.5958 18.9775 5.95901L6.03519 18.9014C5.72174 19.2148 5.32252 19.4285 4.88784 19.5154L2.68634 19.9557C1.11522 20.2699 -0.269983 18.8847 0.0442412 17.3136L0.484542 15.1121C0.571478 14.6774 0.785136 14.2782 1.09859 13.9648L14.0409 1.0224Z" />
  </symbol>
  <symbol xmlns="http://www.w3.org/2000/svg" viewBox="0 0 24 24" id="delete">
    <path fill-rule="evenodd" clip-rule="evenodd"
      d="M6 2C6 0.895431 6.89543 0 8 0H10C11.1046 0 12 0.895431 12 2H16.5C17.3284 2 18 2.67157 18 3.5C18 4.32843 17.3284 5 16.5 5H16V15C16 17.7614 13.7614 20 11 20H7C4.23858 20 2 17.7614 2 15V5H1.5C0.671573 5 0 4.32843 0 3.5C0 2.67157 0.671573 2 1.5 2H6ZM4 5V15C4 16.6569 5.34315 18 7 18H11C12.6569 18 14 16.6569 14 15V5H4ZM7 7C7.55228 7 8 7.44772 8 8V15C8 15.5523 7.55228 16 7 16C6.44772 16 6 15.5523 6 15V8C6 7.44772 6.44772 7 7 7ZM11 7C11.5523 7 12 7.44772 12 8V15C12 15.5523 11.5523 16 11 16C10.4477 16 10 15.5523 10 15V8C10 7.44772 10.4477 7 11 7Z" />
  </symbol>
   <symbol xmlns="http://www.w3.org/2000/svg" viewBox="0 0 24 24" id="chevron-down">
    <path
      d="m7 9.5-.7.7 2.85 2.85L12 15.9l2.85-2.85 2.85-2.85-.7-.7-.699-.7-2.151 2.15L12 13.1l-2.15-2.15L7.699 8.8 7 9.5"
      fill-rule="evenodd" />
  </symbol>
  <symbol xmlns="http://www.w3.org/2000/svg" viewBox="0 0 24 24" id="calendar">
    <path
      d="M7 1C7 0.447715 6.55228 0 6 0C5.44772 0 5 0.447715 5 1H7ZM5 4C5 4.55228 5.44772 5 6 5C6.55228 5 7 4.55228 7 4H5ZM17 1C17 0.447715 16.5523 0 16 0C15.4477 0 15 0.447715 15 1H17ZM15 4C15 4.55228 15.4477 5 16 5C16.5523 5 17 4.55228 17 4H15ZM3.18404 20.564L3.63803 19.673L3.18404 20.564ZM1.43597 18.816L2.32698 18.362L1.43597 18.816ZM20.564 18.816L19.673 18.362L20.564 18.816ZM18.816 20.564L18.362 19.673L18.816 20.564ZM18.816 3.43597L18.362 4.32698L18.816 3.43597ZM20.564 5.18404L19.673 5.63803L20.564 5.18404ZM3.18404 3.43597L3.63803 4.32698L3.18404 3.43597ZM1.43597 5.18404L2.32698 5.63803L1.43597 5.18404ZM5 1V4H7V1H5ZM15 1V4H17V1H15ZM7.4 4H14.6V2H7.4V4ZM20 9.4V14.6H22V9.4H20ZM14.6 20H7.4V22H14.6V20ZM2 14.6V9.4H0V14.6H2ZM7.4 20C6.26339 20 5.47108 19.9992 4.85424 19.9488C4.24907 19.8994 3.90138 19.8072 3.63803 19.673L2.73005 21.455C3.32234 21.7568 3.96253 21.8826 4.69138 21.9422C5.40855 22.0008 6.2964 22 7.4 22V20ZM0 14.6C0 15.7036 -0.000777721 16.5914 0.0578178 17.3086C0.117367 18.0375 0.24318 18.6777 0.544967 19.27L2.32698 18.362C2.19279 18.0986 2.10062 17.7509 2.05118 17.1458C2.00078 16.5289 2 15.7366 2 14.6H0ZM3.63803 19.673C3.07354 19.3854 2.6146 18.9265 2.32698 18.362L0.544967 19.27C1.02433 20.2108 1.78924 20.9757 2.73005 21.455L3.63803 19.673ZM20 14.6C20 15.7366 19.9992 16.5289 19.9488 17.1458C19.8994 17.7509 19.8072 18.0986 19.673 18.362L21.455 19.27C21.7568 18.6777 21.8826 18.0375 21.9422 17.3086C22.0008 16.5914 22 15.7036 22 14.6H20ZM14.6 22C15.7036 22 16.5914 22.0008 17.3086 21.9422C18.0375 21.8826 18.6777 21.7568 19.27 21.455L18.362 19.673C18.0986 19.8072 17.7509 19.8994 17.1458 19.9488C16.5289 19.9992 15.7366 20 14.6 20V22ZM19.673 18.362C19.3854 18.9265 18.9265 19.3854 18.362 19.673L19.27 21.455C20.2108 20.9757 20.9757 20.2108 21.455 19.27L19.673 18.362ZM14.6 4C15.7366 4 16.5289 4.00078 17.1458 4.05118C17.7509 4.10062 18.0986 4.19279 18.362 4.32698L19.27 2.54497C18.6777 2.24318 18.0375 2.11737 17.3086 2.05782C16.5914 1.99922 15.7036 2 14.6 2V4ZM22 9.4C22 8.2964 22.0008 7.40855 21.9422 6.69138C21.8826 5.96253 21.7568 5.32234 21.455 4.73005L19.673 5.63803C19.8072 5.90138 19.8994 6.24907 19.9488 6.85424C19.9992 7.47108 20 8.26339 20 9.4H22ZM18.362 4.32698C18.9265 4.6146 19.3854 5.07354 19.673 5.63803L21.455 4.73005C20.9757 3.78924 20.2108 3.02433 19.27 2.54497L18.362 4.32698ZM7.4 2C6.2964 2 5.40855 1.99922 4.69138 2.05782C3.96253 2.11737 3.32234 2.24318 2.73005 2.54497L3.63803 4.32698C3.90138 4.19279 4.24907 4.10062 4.85424 4.05118C5.47108 4.00078 6.26339 4 7.4 4V2ZM2 9.4C2 8.26339 2.00078 7.47108 2.05118 6.85424C2.10062 6.24907 2.19279 5.90138 2.32698 5.63803L0.544967 4.73005C0.24318 5.32234 0.117367 5.96253 0.0578178 6.69138C-0.000777721 7.40855 0 8.2964 0 9.4H2ZM2.73005 2.54497C1.78924 3.02433 1.02433 3.78924 0.544967 4.73005L2.32698 5.63803C2.6146 5.07354 3.07354 4.6146 3.63803 4.32698L2.73005 2.54497ZM1 8H21V6H1V8ZM14 14H16V12H14V14ZM16 14V16H18V14H16ZM16 16H14V18H16V16ZM14 16V14H12V16H14ZM14 16H12C12 17.1046 12.8954 18 14 18V16ZM16 16V18C17.1046 18 18 17.1046 18 16H16ZM16 14H18C18 12.8954 17.1046 12 16 12V14ZM14 12C12.8954 12 12 12.8954 12 14H14V12Z" />

  </symbol>
  <symbol xmlns="http://www.w3.org/2000/svg" viewBox="0 0 24 24" id="check-sharp">
    <path
      d="M14.560 10.937 L 9.820 15.595 9.240 15.027 C 8.921 14.715,7.781 13.595,6.706 12.540 C 5.632 11.484,4.729 10.620,4.700 10.620 C 4.672 10.620,4.346 10.932,3.978 11.313 L 3.307 12.006 3.623 12.320 C 3.797 12.493,5.263 13.932,6.879 15.517 L 9.819 18.400 10.239 17.984 C 10.471 17.755,12.910 15.360,15.660 12.662 C 18.410 9.963,20.664 7.742,20.668 7.727 C 20.673 7.712,20.367 7.380,19.988 6.990 L 19.300 6.280 14.560 10.937 "
      fill-rule="evenodd"></path>
  </symbol>
  <symbol xmlns="http://www.w3.org/2000/svg" viewBox="0 0 24 24" id="minus-sharp">
    <path
      d="M4.000 12.000 L 4.000 13.000 12.000 13.000 L 20.000 13.000 20.000 12.000 L 20.000 11.000 12.000 11.000 L 4.000 11.000 4.000 12.000 "
      stroke="none" fill-rule="evenodd"></path>
  </symbol>
  <symbol xmlns="http://www.w3.org/2000/svg" viewBox="0 0 24 24" id="minus">
    <path
      d="M4.673 11.063 C 4.310 11.175,4.000 11.606,4.000 12.000 C 4.000 12.405,4.309 12.826,4.690 12.939 C 4.870 12.993,5.755 13.000,12.000 13.000 C 18.245 13.000,19.130 12.993,19.310 12.939 C 19.688 12.827,20.000 12.402,20.000 12.000 C 20.000 11.598,19.688 11.173,19.310 11.061 C 19.009 10.971,4.964 10.974,4.673 11.063 "
      fill-rule="evenodd"></path>
  </symbol>
  <symbol xmlns="http://www.w3.org/2000/svg" viewBox="0 0 24 24" id="info-in-circle-filled">
    <path fill-rule="evenodd" clip-rule="evenodd"
      d="M12 2C17.5228 2 22 6.47715 22 12C22 17.5228 17.5228 22 12 22C6.47715 22 2 17.5228 2 12C2 6.47715 6.47715 2 12 2ZM13 17C13 17.5523 12.5523 18 12 18C11.4477 18 11 17.5523 11 17V11C11 10.4477 11.4477 10 12 10C12.5523 10 13 10.4477 13 11V17ZM13 7C13 7.55229 12.5523 8 12 8C11.4477 8 11 7.55229 11 7V6.99C11 6.43771 11.4477 5.99 12 5.99C12.5523 5.99 13 6.43771 13 6.99V7Z" />
  </symbol>
  <symbol xmlns="http://www.w3.org/2000/svg" viewBox="0 0 24 24" id="check-in-circle-filled">
    <path fill-rule="evenodd" clip-rule="evenodd"
      d="M12 22C17.5228 22 22 17.5228 22 12C22 6.47715 17.5228 2 12 2C6.47715 2 2 6.47715 2 12C2 17.5228 6.47715 22 12 22ZM16.7071 10.107C17.0976 9.71649 17.0976 9.08332 16.7071 8.6928C16.3166 8.30227 15.6834 8.30227 15.2929 8.6928L10.6667 13.319L8.70711 11.3595C8.31658 10.9689 7.68342 10.9689 7.29289 11.3595C6.90237 11.75 6.90237 12.3832 7.29289 12.7737L9.95956 15.4403C10.1471 15.6279 10.4015 15.7332 10.6667 15.7332C10.9319 15.7332 11.1862 15.6279 11.3738 15.4403L16.7071 10.107Z" />
  </symbol>
  <symbol xmlns="http://www.w3.org/2000/svg" viewBox="0 0 24 24" id="info-in-circle-sharp-filled">
    <path fill-rule="evenodd" clip-rule="evenodd"
      d="M12 2C17.5228 2 22 6.47715 22 12C22 17.5228 17.5228 22 12 22C6.47715 22 2 17.5228 2 12C2 6.47715 6.47715 2 12 2ZM11 17.5V10.5H13V17.5H11ZM11 8.5V6.5H13V8.5H11Z" />
  </symbol>
  <symbol xmlns="http://www.w3.org/2000/svg" viewBox="0 0 24 24" id="check-in-circle-sharp-filled">
    <path fill-rule="evenodd" clip-rule="evenodd"
      d="M12 22C17.5228 22 22 17.5228 22 12C22 6.47715 17.5228 2 12 2C6.47715 2 2 6.47715 2 12C2 17.5228 6.47715 22 12 22ZM10.9086 15.9017L16.7002 10.2135L15.2988 8.78662L10.9086 13.0984L8.70024 10.9295L7.29883 12.3564L10.9086 15.9017Z" />
  </symbol>
  <symbol xmlns="http://www.w3.org/2000/svg" viewBox="0 0 24 24" id="check-in-circle">
    <path
      d="m11.28 1.023-.56.06c-1.888.2-3.729.94-5.36 2.152-.606.451-1.674 1.519-2.125 2.125-1.034 1.39-1.698 2.866-2.011 4.47-.166.847-.201 1.227-.201 2.17 0 .943.035 1.323.201 2.17.313 1.604.977 3.08 2.011 4.47.451.606 1.519 1.674 2.125 2.125 1.625 1.209 3.314 1.89 5.36 2.162.491.065 2.069.065 2.56 0 2.046-.272 3.735-.953 5.36-2.162.606-.451 1.674-1.519 2.125-2.125 1.209-1.625 1.89-3.314 2.162-5.36.065-.491.065-2.069 0-2.56-.272-2.046-.953-3.735-2.162-5.36-.451-.606-1.519-1.674-2.125-2.125-1.595-1.186-3.275-1.875-5.217-2.139C13 1.038 11.574.99 11.28 1.023m1.728 2.036a8.827 8.827 0 0 1 3.012.899c.947.479 1.613.959 2.338 1.684.725.725 1.205 1.391 1.684 2.338 1.075 2.123 1.249 4.555.493 6.86-.619 1.887-1.895 3.547-3.608 4.692-.789.528-2.051 1.056-3.019 1.265a9.049 9.049 0 0 1-7.542-1.782 10.477 10.477 0 0 1-1.381-1.381 9.173 9.173 0 0 1-1.943-4.748c-.233-2.309.476-4.687 1.946-6.526 1.449-1.811 3.627-3.017 5.96-3.299a9.918 9.918 0 0 1 2.06-.002m2.632 5.409c-.154.053-.521.402-2.581 2.457l-2.4 2.394-1.02-1.024C8.516 11.167 8.399 11.08 8 11.081a1.003 1.003 0 0 0-.892.539c-.123.23-.119.654.007.9.138.268 2.885 3.008 3.125 3.117.26.117.608.111.862-.016.152-.076.845-.747 2.984-2.89 2.699-2.703 2.789-2.798 2.85-3.008.08-.271.08-.375.003-.633-.155-.524-.753-.809-1.299-.622"
      fill-rule="evenodd" />
  </symbol>
  <symbol xmlns="http://www.w3.org/2000/svg" viewBox="0 0 24 24" id="x-in-circle">
    <path
      d="M11.052 1.041c-2.115.205-4.007.933-5.689 2.189-.609.454-1.679 1.524-2.133 2.133a11.039 11.039 0 0 0-2.114 5.079c-.133.886-.133 2.23 0 3.116.301 2.006 1.046 3.724 2.317 5.342.284.361 1.306 1.383 1.667 1.667 1.618 1.271 3.336 2.016 5.342 2.317.886.133 2.23.133 3.116 0 1.964-.295 3.654-1.017 5.242-2.238.438-.337 1.509-1.408 1.846-1.846 1.221-1.588 1.943-3.278 2.238-5.242.133-.886.133-2.23 0-3.116-.295-1.964-1.019-3.659-2.239-5.242-.314-.407-1.354-1.46-1.745-1.767-1.615-1.266-3.356-2.023-5.32-2.313-.642-.095-1.946-.136-2.528-.079m1.956 2.018a8.867 8.867 0 0 1 2.972.879 8.405 8.405 0 0 1 2.377 1.705 8.365 8.365 0 0 1 1.704 2.377c1.253 2.549 1.253 5.411 0 7.96a8.365 8.365 0 0 1-1.704 2.377 8.365 8.365 0 0 1-2.377 1.704c-2.547 1.252-5.425 1.252-7.96.001a8.405 8.405 0 0 1-2.377-1.705 8.405 8.405 0 0 1-1.705-2.377 8.917 8.917 0 0 1 0-7.96 8.405 8.405 0 0 1 1.705-2.377A8.405 8.405 0 0 1 8.02 3.938a8.947 8.947 0 0 1 4.988-.879M8.973 8.202a.972.972 0 0 0-.716.578c-.097.233-.088.603.022.822.059.117.469.559 1.194 1.288L10.578 12l-1.105 1.11c-.725.729-1.135 1.171-1.194 1.288-.173.347-.099.83.173 1.117.28.296.788.387 1.15.206.117-.059.559-.469 1.288-1.194L12 13.422l1.11 1.105c.729.725 1.171 1.135 1.288 1.194.362.181.87.09 1.15-.206.272-.287.346-.77.173-1.117-.059-.117-.469-.559-1.194-1.288L13.422 12l1.105-1.11c.725-.729 1.135-1.171 1.194-1.288.173-.347.099-.83-.173-1.117a1.03 1.03 0 0 0-1.15-.206c-.117.059-.559.469-1.288 1.194L12 10.578l-1.11-1.105c-.668-.665-1.174-1.136-1.27-1.183-.2-.098-.431-.13-.647-.088"
      fill-rule="evenodd" />
  </symbol>
</svg>