<svg width="0" height="0" class="hidden">
  <symbol  xmlns="http://www.w3.org/2000/svg" viewBox="0 0 24 24" id="members">
    <path d="M8.58 2.043c-1.692.132-3.264 1.2-4.03 2.737a4.982 4.982 0 0 0 0 4.44c.222.447.483.814.849 1.196.979 1.024 2.202 1.55 3.601 1.55s2.622-.526 3.601-1.55c.902-.942 1.365-2.102 1.365-3.416 0-1.399-.526-2.622-1.55-3.601-1.033-.989-2.391-1.468-3.836-1.356m6.03-.003c-.568.084-.956.658-.81 1.199.07.259.256.495.493.624.187.102.259.115.767.142.686.037.819.068 1.3.304.325.159.436.242.762.569.326.326.41.438.569.762.225.457.309.829.309 1.365a2.8 2.8 0 0 1-.311 1.355c-.158.326-.239.434-.567.762-.326.327-.437.41-.762.569-.481.236-.614.267-1.3.304-.508.027-.58.04-.767.142a.963.963 0 0 0-.188 1.582c.252.221.377.255.936.25 1.371-.011 2.595-.545 3.56-1.553.902-.942 1.365-2.102 1.365-3.416 0-1.399-.526-2.622-1.55-3.601-.884-.846-1.971-1.307-3.236-1.371a3.731 3.731 0 0 0-.57.012M9.687 4.061c.163.034.462.144.673.248a3.067 3.067 0 0 1 1.331 1.331c.225.457.309.829.309 1.365a2.8 2.8 0 0 1-.311 1.355c-.158.326-.239.434-.567.762-.326.326-.438.41-.762.569A2.802 2.802 0 0 1 9 10c-.531 0-.904-.085-1.36-.309-.324-.159-.436-.243-.762-.569-.326-.326-.41-.438-.569-.762A2.802 2.802 0 0 1 6 7c0-.531.085-.904.309-1.36.159-.324.243-.436.569-.762.325-.326.438-.41.762-.57.209-.103.497-.212.64-.243.353-.077 1.048-.079 1.407-.004M4.58 14.04a5.01 5.01 0 0 0-4.299 3.392c-.231.693-.257.936-.259 2.428-.002 1.343-.001 1.362.091 1.548.175.355.499.56.887.56a.964.964 0 0 0 .887-.56c.09-.183.094-.229.118-1.608.015-.875.042-1.489.071-1.6.026-.099.131-.351.233-.56.159-.325.242-.436.569-.762.326-.326.438-.41.762-.569C4.298 15.985 4.043 16 9 16c4.957 0 4.702-.015 5.36.309.324.159.436.243.762.569.327.326.41.437.569.762.102.209.207.461.233.56.029.111.056.725.071 1.6.024 1.379.028 1.425.118 1.608.175.355.499.56.887.56a.964.964 0 0 0 .887-.56c.092-.186.093-.205.091-1.548-.002-1.13-.014-1.421-.073-1.72-.198-1.013-.622-1.843-1.304-2.556-.734-.767-1.56-1.229-2.631-1.47-.387-.088-.419-.088-4.71-.097-2.376-.004-4.482.006-4.68.023m13.993.001a.887.887 0 0 0-.519.286c-.204.217-.271.384-.271.673 0 .297.087.501.303.708.211.202.391.255.991.294.678.044.811.076 1.283.307.325.159.436.242.762.569.327.326.41.437.569.762.102.209.207.461.233.56.029.111.056.725.071 1.6.024 1.379.028 1.425.118 1.608.175.355.499.56.887.56a.964.964 0 0 0 .887-.56c.092-.186.093-.205.091-1.548-.002-1.495-.028-1.735-.262-2.436a4.994 4.994 0 0 0-3.747-3.3c-.456-.09-1.158-.132-1.396-.083" fill-rule="evenodd" ></path>
  </symbol>

<symbol  xmlns="http://www.w3.org/2000/svg" viewBox="0 0 24 24" id="settings">
    <path d="M8.339 2.038c-1.459.134-2.856.948-3.649 2.128-.186.277-2.89 5.115-3.171 5.674-.659 1.312-.659 3.008 0 4.32.281.559 2.985 5.397 3.171 5.674.685 1.018 1.822 1.768 3.113 2.054l.417.092h3.76c4.161 0 4.021.008 4.84-.265.974-.325 1.945-1.06 2.506-1.898.197-.295 2.845-5.041 3.133-5.616A4.609 4.609 0 0 0 22.973 12c0-.826-.153-1.479-.514-2.201-.288-.575-2.936-5.321-3.133-5.616-.412-.615-1.11-1.233-1.798-1.593a5.046 5.046 0 0 0-1.318-.476c-.384-.087-.446-.088-3.97-.096-1.969-.005-3.724.004-3.901.02m7.521 2.017c.302.066.676.217.967.391.293.175.725.595.909.884.08.126.799 1.405 1.597 2.842 1.088 1.959 1.475 2.692 1.549 2.93.085.276.098.395.098.898s-.013.622-.098.898c-.074.238-.461.971-1.549 2.93a191.73 191.73 0 0 1-1.597 2.842c-.296.464-.826.893-1.385 1.121-.512.208-.47.206-4.355.208-3.508.001-3.633-.002-3.94-.08-.748-.191-1.404-.649-1.786-1.246-.283-.442-2.983-5.344-3.081-5.593a3.133 3.133 0 0 1 .027-2.23c.098-.232 2.732-5.008 2.996-5.43A3.005 3.005 0 0 1 8.04 4.083c.287-.075.456-.079 3.94-.079 2.848-.001 3.692.01 3.88.051m-4.593 3.526c-1.869.314-3.384 1.84-3.688 3.717-.391 2.41 1.293 4.729 3.719 5.123 2.973.482 5.605-2.15 5.123-5.123-.395-2.434-2.737-4.123-5.154-3.717m1.493 2.016c.753.234 1.41.897 1.65 1.663.07.22.088.378.088.74s-.018.52-.088.74a2.617 2.617 0 0 1-1.67 1.67c-.396.125-1.084.125-1.48 0a2.617 2.617 0 0 1-1.67-1.67c-.125-.396-.125-1.084 0-1.48.274-.876 1.061-1.58 1.944-1.739.309-.056.926-.018 1.226.076" fill-rule="evenodd" ></path>
  </symbol>

  <symbol fill="none" xmlns="http://www.w3.org/2000/svg" viewBox="0 0 24 24" id="members">
    <g id="outline-user-02-multiple">
      <path id="icon" d="M1 21V19C1 16.7909 2.79086 15 5 15H13C15.2091 15 17 16.7909 17 19V21M23 21V19C23 16.7909 21.2091 15 19 15H18.75M14.7461 3.00793C14.8301 3.00267 14.9147 3 15 3C17.2091 3 19 4.79086 19 7C19 9.20914 17.2091 11 15 11C14.9147 11 14.8301 10.9973 14.7461 10.9921M13 7C13 9.20914 11.2091 11 9 11C6.79086 11 5 9.20914 5 7C5 4.79086 6.79086 3 9 3C11.2091 3 13 4.79086 13 7Z" stroke="#817D8F" stroke-width="2" stroke-linecap="round"></path>
    </g>
  </symbol>
<symbol  xmlns="http://www.w3.org/2000/svg" viewBox="0 0 24 24" id="tasks">
    <path d="M3.636 1.044c-1.178.12-2.265 1.087-2.538 2.257-.085.364-.085 1.034 0 1.398.241 1.035 1.168 1.962 2.203 2.203.364.085 1.034.085 1.398 0 1.035-.241 1.962-1.168 2.203-2.203.085-.364.085-1.034 0-1.398-.192-.825-.841-1.617-1.639-2.001-.475-.228-1.034-.316-1.627-.256m.785 2.031c.367.166.577.504.577.925 0 .593-.405.998-.998.998S3.002 4.593 3.002 4s.405-.998.998-.998c.166 0 .318.026.421.073M9.8 3.044c-.358.07-.688.406-.755.766a.982.982 0 0 0 .798 1.151c.147.027 2.293.037 6.3.03 6.725-.012 6.191.01 6.507-.268a.976.976 0 0 0 0-1.446c-.316-.278.224-.256-6.55-.263-3.435-.003-6.199.01-6.3.03m-6.164 6c-1.178.12-2.262 1.084-2.539 2.257-.085.362-.085 1.031.001 1.398.242 1.035 1.168 1.962 2.203 2.203.364.085 1.034.085 1.398 0 1.035-.241 1.962-1.168 2.203-2.203.085-.364.085-1.034 0-1.398-.192-.825-.841-1.617-1.639-2.001-.475-.228-1.034-.316-1.627-.256m.785 2.031c.367.166.577.504.577.925 0 .593-.405.998-.998.998s-.998-.405-.998-.998.405-.998.998-.998c.166 0 .318.026.421.073m5.379-.031c-.358.07-.688.406-.755.766a.982.982 0 0 0 .798 1.151c.147.027 2.293.037 6.3.03 6.725-.012 6.191.01 6.507-.268a.976.976 0 0 0 0-1.446c-.316-.278.224-.256-6.55-.263-3.435-.003-6.199.01-6.3.03m-6.164 6c-1.178.12-2.262 1.084-2.539 2.257-.085.362-.085 1.031.001 1.398.242 1.035 1.168 1.962 2.203 2.203.364.085 1.034.085 1.398 0 1.035-.241 1.962-1.168 2.203-2.203.085-.364.085-1.034 0-1.398-.192-.825-.841-1.617-1.639-2.001-.475-.228-1.034-.316-1.627-.256m.785 2.031c.367.166.577.504.577.925 0 .593-.405.998-.998.998s-.998-.405-.998-.998.405-.998.998-.998c.166 0 .318.026.421.073m5.379-.031c-.358.07-.688.406-.755.766a.982.982 0 0 0 .798 1.151c.147.027 2.293.037 6.3.03 6.725-.012 6.191.01 6.507-.268a.976.976 0 0 0 0-1.446c-.316-.278.224-.256-6.55-.263-3.435-.003-6.199.01-6.3.03" fill-rule="evenodd" ></path>
  </symbol>

  <symbol  xmlns="http://www.w3.org/2000/svg" viewBox="0 0 24 24" id="stories">

<path d="M3.636 1.041c-1.187.132-2.238 1.066-2.545 2.26-.066.26-.071.585-.071 4.699s.005 4.439.071 4.699a3.138 3.138 0 0 0 2.21 2.21c.253.064.506.071 2.699.071 2.193 0 2.446-.007 2.699-.071a3.138 3.138 0 0 0 2.21-2.21c.066-.26.071-.585.071-4.699s-.005-4.439-.071-4.699a3.16 3.16 0 0 0-1.645-2c-.567-.273-.558-.272-3.064-.283-1.243-.006-2.397.005-2.564.023m12 0c-1.187.132-2.238 1.066-2.545 2.26-.067.264-.071.744-.071 8.699s.004 8.435.071 8.699a3.138 3.138 0 0 0 2.21 2.21c.253.064.506.071 2.699.071 2.193 0 2.446-.007 2.699-.071a3.138 3.138 0 0 0 2.21-2.21c.067-.264.071-.744.071-8.699s-.004-8.435-.071-8.699a3.16 3.16 0 0 0-1.645-2c-.567-.273-.558-.272-3.064-.283-1.243-.006-2.397.005-2.564.023M8.421 3.075c.205.093.411.299.504.504.069.153.073.381.073 4.421s-.004 4.268-.073 4.421a1.099 1.099 0 0 1-.504.504c-.15.068-.318.073-2.421.073-2.103 0-2.271-.005-2.421-.073a1.099 1.099 0 0 1-.504-.504c-.069-.153-.073-.381-.073-4.421s.004-4.268.073-4.421c.093-.205.299-.411.504-.504.15-.068.318-.073 2.421-.073 2.103 0 2.271.005 2.421.073m12 0c.205.093.411.299.504.504.07.154.073.507.073 8.421s-.003 8.267-.073 8.421a1.099 1.099 0 0 1-.504.504c-.15.068-.318.073-2.421.073-2.103 0-2.271-.005-2.421-.073a1.099 1.099 0 0 1-.504-.504c-.07-.154-.073-.507-.073-8.421s.003-8.267.073-8.421c.093-.205.299-.411.504-.504.15-.068.318-.073 2.421-.073 2.103 0 2.271.005 2.421.073" fill-rule="evenodd" ></path>
  </symbol>
  <symbol  xmlns="http://www.w3.org/2000/svg" viewBox="0 0 24 24" id="projects">
    <path d="M7.58 1.041a5.009 5.009 0 0 0-4.299 3.391c-.277.833-.261.358-.261 7.568 0 7.217-.017 6.734.264 7.576a5.012 5.012 0 0 0 3.148 3.143c.816.272.589.261 5.568.261 4.188 0 4.525-.005 4.86-.073 1.025-.206 1.845-.625 2.556-1.306.79-.756 1.268-1.636 1.491-2.741.068-.337.073-.701.073-5.7 0-4.403-.01-5.368-.055-5.5-.044-.13-.653-.76-3.2-3.311-2.276-2.281-3.195-3.176-3.325-3.24l-.18-.089-3.14-.005c-1.727-.003-3.302.009-3.5.026m5.431 3.689c.021 1.914.03 1.993.29 2.534a3.204 3.204 0 0 0 1.435 1.435c.541.26.62.269 2.534.29l1.73.019v4.698c0 5.295.017 4.979-.311 5.654-.158.326-.239.434-.567.762-.326.326-.438.41-.762.569-.658.324-.403.309-5.36.309-4.957 0-4.702.015-5.36-.309-.324-.159-.436-.243-.762-.569-.326-.326-.41-.438-.569-.762C4.979 18.689 5 19.192 5 12s-.021-6.689.309-7.36c.159-.324.243-.436.569-.762.325-.326.438-.41.762-.57.62-.305.549-.299 3.626-.304L12.992 3l.019 1.73m3.679 2.261c-1.027.013-1.13-.006-1.39-.259-.281-.273-.298-.353-.299-1.412L15 4.38l1.3 1.3 1.301 1.3-.911.011M8.8 12.043a1.02 1.02 0 0 0-.755.767.982.982 0 0 0 .802 1.151c.147.027 1.3.038 3.3.03 3.391-.012 3.195.003 3.503-.268a.976.976 0 0 0 0-1.446c-.309-.271-.105-.256-3.55-.263-1.716-.004-3.201.01-3.3.029m0 4c-.099.02-.251.086-.339.148a.974.974 0 0 0 .392 1.771c.147.027.808.038 1.8.031 1.545-.013 1.57-.014 1.755-.106a.964.964 0 0 0 .56-.887.964.964 0 0 0-.56-.887c-.186-.092-.201-.093-1.808-.1-.891-.004-1.701.01-1.8.03" fill-rule="evenodd" ></path>
  </symbol>
   <symbol  xmlns="http://www.w3.org/2000/svg" viewBox="0 0 24 24" id="support">
    <path d="M11.336 2.042A10.003 10.003 0 0 0 4.318 5.64c-1.222 1.48-1.944 3.14-2.226 5.12-.065.453-.072.88-.072 4.58 0 3.788.005 4.1.071 4.359.272 1.059 1.178 1.962 2.21 2.203.364.085 1.034.085 1.398 0 1.032-.241 1.938-1.144 2.21-2.203.064-.253.071-.506.071-2.699 0-2.193-.007-2.446-.071-2.699-.272-1.059-1.178-1.962-2.21-2.203-.361-.084-1.034-.085-1.391-.002-.15.035-.283.064-.296.064-.044 0 .023-1.178.085-1.52.406-2.211 1.601-4.055 3.435-5.296.919-.622 2.025-1.057 3.228-1.271.406-.072 2.074-.072 2.48 0a8.428 8.428 0 0 1 2.368.772c2.26 1.129 3.827 3.243 4.295 5.795.062.342.129 1.52.085 1.52-.013 0-.146-.029-.296-.064-.357-.083-1.03-.082-1.391.002-1.032.241-1.938 1.144-2.21 2.203-.064.253-.071.506-.071 2.699 0 2.193.007 2.446.071 2.699.272 1.059 1.178 1.962 2.21 2.203.364.085 1.034.085 1.398 0 1.032-.241 1.938-1.144 2.21-2.203.066-.259.071-.571.071-4.359 0-4.463.001-4.433-.245-5.54-.674-3.028-2.813-5.633-5.681-6.917a10.102 10.102 0 0 0-4.718-.841M5.421 14.075c.205.093.411.299.504.504.068.15.073.318.073 2.421 0 2.521.01 2.426-.281 2.717-.197.197-.412.281-.717.281s-.52-.084-.717-.281c-.291-.291-.281-.196-.281-2.717s-.01-2.426.281-2.717c.197-.197.412-.281.717-.281.166 0 .318.026.421.073m14 0c.088.04.222.134.296.208.291.291.281.196.281 2.717s.01 2.426-.281 2.717c-.197.197-.412.281-.717.281s-.52-.084-.717-.281c-.291-.291-.281-.196-.281-2.717s-.01-2.426.281-2.717c.197-.197.412-.281.717-.281.166 0 .318.026.421.073" fill-rule="evenodd" ></path>
  </symbol>

<symbol xmlns="http://www.w3.org/2000/svg" viewBox="0 0 24 24" id="log-out">

<path d="M10.789 2.044a.895.895 0 0 0-.517.308.969.969 0 0 0 .003 1.3c.08.088.226.198.325.244.177.083.237.084 3.6.104l3.42.02.32.113a3.11 3.11 0 0 1 1.966 2.047c.07.228.074.508.074 5.82s-.004 5.592-.074 5.82a3.11 3.11 0 0 1-1.966 2.047l-.32.113-3.42.02c-3.363.02-3.423.021-3.6.104a.983.983 0 0 0-.325 1.548c.08.088.226.198.325.244.177.083.234.084 3.2.096 1.9.008 3.214-.004 3.544-.03 1.27-.104 2.306-.575 3.175-1.443.723-.724 1.131-1.488 1.37-2.567l.091-.412V6.46l-.091-.412c-.239-1.079-.647-1.843-1.37-2.567-.853-.853-1.892-1.332-3.119-1.44-.567-.05-6.399-.047-6.611.003m-4 4.999c-.084.02-.201.062-.26.094-.06.032-1.075 1.026-2.255 2.21C1.977 11.653 2.026 11.595 2.026 12c0 .405-.049.347 2.248 2.654 1.595 1.601 2.191 2.175 2.321 2.234.11.05.26.08.405.08.548 0 .964-.407.969-.948.003-.416-.001-.423-1.342-1.769l-1.244-1.25 5.419-.01c5.4-.011 5.419-.011 5.598-.095a.983.983 0 0 0 .325-1.548 1.232 1.232 0 0 0-.325-.244c-.179-.084-.198-.084-5.598-.095l-5.419-.01 1.244-1.25c1.342-1.348 1.345-1.352 1.342-1.772-.006-.608-.596-1.075-1.18-.934" fill-rule="evenodd" />
  </symbol>
  <symbol xmlns="http://www.w3.org/2000/svg" viewBox="0 0 24 24" id="chevron-right">
<path id="icon" d="M10.5 7L15.5 12L10.5 17" stroke="#A29FB2" stroke-width="2" stroke-linecap="round" stroke-linejoin="round" fill="white"/>
  </symbol>
</svg>