<svg width="108" height="108" viewBox="0 0 108 108" fill="none" xmlns="http://www.w3.org/2000/svg">
<path d="M0.5 32C0.5 14.603 14.603 0.5 32 0.5H76C93.397 0.5 107.5 14.603 107.5 32V76C107.5 93.397 93.397 107.5 76 107.5H32C14.603 107.5 0.5 93.397 0.5 76V32Z" fill="#FAE5FE"/>
<path d="M0.5 32C0.5 14.603 14.603 0.5 32 0.5H76C93.397 0.5 107.5 14.603 107.5 32V76C107.5 93.397 93.397 107.5 76 107.5H32C14.603 107.5 0.5 93.397 0.5 76V32Z" stroke="#F1BCFC"/>
<path d="M30.3518 78.0348C29.8187 78.669 29.9007 79.6152 30.5348 80.1482C31.169 80.6813 32.1152 80.5993 32.6482 79.9652L30.3518 78.0348ZM27.9393 35.4393C27.3536 36.0251 27.3536 36.9749 27.9393 37.5607C28.5251 38.1464 29.4749 38.1464 30.0607 37.5607L27.9393 35.4393ZM37.5607 30.0607C38.1464 29.4749 38.1464 28.5251 37.5607 27.9393C36.9749 27.3536 36.0251 27.3536 35.4393 27.9393L37.5607 30.0607ZM75.3518 79.9652C75.8848 80.5993 76.831 80.6813 77.4652 80.1482C78.0993 79.6152 78.1813 78.669 77.6482 78.0348L75.3518 79.9652ZM72.5607 27.9393C71.9749 27.3536 71.0251 27.3536 70.4393 27.9393C69.8536 28.5251 69.8536 29.4749 70.4393 30.0607L72.5607 27.9393ZM77.9393 37.5607C78.5251 38.1464 79.4749 38.1464 80.0607 37.5607C80.6464 36.9749 80.6464 36.0251 80.0607 35.4393L77.9393 37.5607ZM45.0609 54.0396C44.4753 53.4537 43.5255 53.4534 42.9396 54.0391C42.3537 54.6247 42.3534 55.5745 42.9391 56.1604L45.0609 54.0396ZM65.0561 50.8152C65.6444 50.2319 65.6485 49.2822 65.0652 48.6939C64.4819 48.1056 63.5322 48.1015 62.9439 48.6848L65.0561 50.8152ZM50.3968 61.5L49.3359 62.5604L49.3458 62.5702L50.3968 61.5ZM52.1486 61.5L53.1997 62.5702L53.2047 62.5652L52.1486 61.5ZM33 55.25C33 43.652 42.402 34.25 54 34.25V31.25C40.7452 31.25 30 41.9952 30 55.25H33ZM54 34.25C65.598 34.25 75 43.652 75 55.25H78C78 41.9952 67.2548 31.25 54 31.25V34.25ZM30.0607 37.5607L37.5607 30.0607L35.4393 27.9393L27.9393 35.4393L30.0607 37.5607ZM70.4393 30.0607L77.9393 37.5607L80.0607 35.4393L72.5607 27.9393L70.4393 30.0607ZM68.7617 72.1251L75.3518 79.9652L77.6482 78.0348L71.0581 70.1947L68.7617 72.1251ZM75 55.25C75 61.0494 72.6511 66.2973 68.8492 70.0992L70.9706 72.2206C75.3121 67.8791 78 61.877 78 55.25H75ZM68.8492 70.0992C65.0473 73.9011 59.7994 76.25 54 76.25V79.25C60.627 79.25 66.6291 76.5621 70.9706 72.2206L68.8492 70.0992ZM32.6482 79.9652L39.2383 72.1251L36.9419 70.1947L30.3518 78.0348L32.6482 79.9652ZM54 76.25C48.2006 76.25 42.9527 73.9011 39.1508 70.0992L37.0294 72.2206C41.3709 76.5621 47.373 79.25 54 79.25V76.25ZM39.1508 70.0992C35.3489 66.2973 33 61.0494 33 55.25H30C30 61.877 32.6879 67.8791 37.0294 72.2206L39.1508 70.0992ZM42.9391 56.1604L49.3359 62.5604L51.4578 60.4396L45.0609 54.0396L42.9391 56.1604ZM53.2047 62.5652L65.0561 50.8152L62.9439 48.6848L51.0925 60.4348L53.2047 62.5652ZM49.3458 62.5702C50.4156 63.6209 52.1299 63.6209 53.1997 62.5702L51.0976 60.4298C51.1948 60.3343 51.3507 60.3343 51.4479 60.4298L49.3458 62.5702Z" fill="#D400F9"/>
</svg>