<svg width="108" height="108" viewBox="0 0 108 108" fill="none" xmlns="http://www.w3.org/2000/svg">
<path d="M0.5 32C0.5 14.603 14.603 0.5 32 0.5H76C93.397 0.5 107.5 14.603 107.5 32V76C107.5 93.397 93.397 107.5 76 107.5H32C14.603 107.5 0.5 93.397 0.5 76V32Z" fill="#E3F3FF"/>
<path d="M0.5 32C0.5 14.603 14.603 0.5 32 0.5H76C93.397 0.5 107.5 14.603 107.5 32V76C107.5 93.397 93.397 107.5 76 107.5H32C14.603 107.5 0.5 93.397 0.5 76V32Z" stroke="#BBE0FF"/>
<path d="M59 29H44C38.4772 29 34 33.4772 34 39V69C34 74.5228 38.4772 79 44 79H64C69.5228 79 74 74.5228 74 69V44M59 29V39C59 41.7614 61.2386 44 64 44H74M59 29L74 44M44 69V64M54 69L54 54M64 69L64 59" stroke="#1977FB" stroke-width="3" stroke-linecap="round"/>
</svg>