<svg width="108" height="108" viewBox="0 0 108 108" fill="none" xmlns="http://www.w3.org/2000/svg">
<path d="M0.5 32C0.5 14.603 14.603 0.5 32 0.5H76C93.397 0.5 107.5 14.603 107.5 32V76C107.5 93.397 93.397 107.5 76 107.5H32C14.603 107.5 0.5 93.397 0.5 76V32Z" fill="#F0E7FE"/>
<path d="M0.5 32C0.5 14.603 14.603 0.5 32 0.5H76C93.397 0.5 107.5 14.603 107.5 32V76C107.5 93.397 93.397 107.5 76 107.5H32C14.603 107.5 0.5 93.397 0.5 76V32Z" stroke="#D7C4FC"/>
<path d="M51.0977 64.6835L43.961 57.5468M51.0977 64.6835C51.0977 64.6835 63.587 59.331 70.7237 52.1943C78.8974 44.0205 79.6445 29 79.6445 29C79.6445 29 64.6244 29.7475 56.4502 37.9209C49.3132 45.0572 43.961 57.5468 43.961 57.5468M51.0977 64.6835L55.3181 79L57.6632 78.3716C63.0833 76.9193 66.2781 71.325 64.7749 65.9189L62.7055 58.4495M43.961 57.5468L29.6445 53.3264L30.2729 50.9813C31.7252 45.5613 37.3195 42.3664 42.7256 43.8696L50.1949 45.9389M42.1768 73.6044C38.6085 77.1727 29.6876 78.9569 29.6876 78.9569C29.6876 78.9569 31.4718 70.036 35.0401 66.4677C37.0109 64.4969 40.2061 64.4969 42.1768 66.4677C44.1476 68.4384 44.1476 71.6336 42.1768 73.6044ZM67.156 45.0583C66.1706 46.0436 64.573 46.0436 63.5876 45.0583C62.6023 44.0729 62.6023 42.4753 63.5876 41.4899C64.573 40.5045 66.1706 40.5045 67.156 41.4899C68.1413 42.4753 68.1413 44.0729 67.156 45.0583Z" stroke="#6826F7" stroke-width="3" stroke-linejoin="round"/>
</svg>
