<svg width="108" height="108" viewBox="0 0 108 108" fill="none" xmlns="http://www.w3.org/2000/svg">
<path d="M0.5 32C0.5 14.603 14.603 0.5 32 0.5H76C93.397 0.5 107.5 14.603 107.5 32V76C107.5 93.397 93.397 107.5 76 107.5H32C14.603 107.5 0.5 93.397 0.5 76V32Z" fill="#E6F6E6"/>
<path d="M0.5 32C0.5 14.603 14.603 0.5 32 0.5H76C93.397 0.5 107.5 14.603 107.5 32V76C107.5 93.397 93.397 107.5 76 107.5H32C14.603 107.5 0.5 93.397 0.5 76V32Z" stroke="#C2E9C1"/>
<path d="M51.5 52.5C50.6716 52.5 50 53.1716 50 54C50 54.8284 50.6716 55.5 51.5 55.5V52.5ZM59 55.5C59.8284 55.5 60.5 54.8284 60.5 54C60.5 53.1716 59.8284 52.5 59 52.5V55.5ZM51.5 62.5C50.6716 62.5 50 63.1716 50 64C50 64.8284 50.6716 65.5 51.5 65.5V62.5ZM64 65.5C64.8284 65.5 65.5 64.8284 65.5 64C65.5 63.1716 64.8284 62.5 64 62.5V65.5ZM44 52.5C43.1716 52.5 42.5 53.1716 42.5 54C42.5 54.8284 43.1716 55.5 44 55.5V52.5ZM44.025 55.5C44.8534 55.5 45.525 54.8284 45.525 54C45.525 53.1716 44.8534 52.5 44.025 52.5V55.5ZM44 62.5C43.1716 62.5 42.5 63.1716 42.5 64C42.5 64.8284 43.1716 65.5 44 65.5V62.5ZM44.025 65.5C44.8534 65.5 45.525 64.8284 45.525 64C45.525 63.1716 44.8534 62.5 44.025 62.5V65.5ZM72.5 44V69H75.5V44H72.5ZM64 77.5H44V80.5H64V77.5ZM35.5 69V44H32.5V69H35.5ZM44 77.5C39.3056 77.5 35.5 73.6944 35.5 69H32.5C32.5 75.3513 37.6487 80.5 44 80.5V77.5ZM72.5 69C72.5 73.6944 68.6944 77.5 64 77.5V80.5C70.3513 80.5 75.5 75.3513 75.5 69H72.5ZM75.5 44C75.5 37.6487 70.3513 32.5 64 32.5V35.5C68.6944 35.5 72.5 39.3056 72.5 44H75.5ZM35.5 44C35.5 39.3056 39.3056 35.5 44 35.5V32.5C37.6487 32.5 32.5 37.6487 32.5 44H35.5ZM47.75 30.5H60.25V27.5H47.75V30.5ZM62.5 32.75V35.25H65.5V32.75H62.5ZM60.25 37.5H47.75V40.5H60.25V37.5ZM45.5 35.25V32.75H42.5V35.25H45.5ZM47.75 37.5C46.5074 37.5 45.5 36.4926 45.5 35.25H42.5C42.5 38.1495 44.8505 40.5 47.75 40.5V37.5ZM62.5 35.25C62.5 36.4926 61.4926 37.5 60.25 37.5V40.5C63.1495 40.5 65.5 38.1495 65.5 35.25H62.5ZM60.25 30.5C61.4926 30.5 62.5 31.5074 62.5 32.75H65.5C65.5 29.8505 63.1495 27.5 60.25 27.5V30.5ZM47.75 27.5C44.8505 27.5 42.5 29.8505 42.5 32.75H45.5C45.5 31.5074 46.5074 30.5 47.75 30.5V27.5ZM51.5 55.5H59V52.5H51.5V55.5ZM51.5 65.5H64V62.5H51.5V65.5ZM44 55.5H44.025V52.5H44V55.5ZM44 65.5H44.025V62.5H44V65.5Z" fill="#00B627"/>
</svg>