<svg width="370" height="294" viewBox="0 0 370 294" fill="none" xmlns="http://www.w3.org/2000/svg">
<path fill-rule="evenodd" clip-rule="evenodd" d="M174.679 4.13692C140.62 -0.743495 101.037 -3.15793 76.898 21.4192C52.8298 45.924 58.9107 85.1449 61.4294 119.441C63.6983 150.335 69.2123 181.384 90.3081 204.02C112.088 227.39 142.778 241.345 174.679 240.961C206.236 240.581 233.483 223.055 257.047 202.012C282.491 179.291 314.053 174.969 310.763 119.441C306.943 54.9737 273.546 67.5794 248.004 45.9368C225.68 27.0219 203.615 8.28305 174.679 4.13692Z" fill="#F7F3FE"/>
<path fill-rule="evenodd" clip-rule="evenodd" d="M153 87.9688C153 70.2956 167.327 55.9688 185 55.9688C202.673 55.9688 217 70.2956 217 87.9688C217 105.642 202.673 119.969 185 119.969C167.327 119.969 153 105.642 153 87.9688ZM125 184.969C123.895 184.969 123 184.073 123 182.969V167.969C123 150.296 137.327 135.969 155 135.969H215C232.673 135.969 247 150.296 247 167.969V182.969C247 184.073 246.105 184.969 245 184.969C237.469 184.969 252.745 184.969 125 184.969Z" fill="white"/>
<path d="M125 182.969V167.969C125 151.4 138.431 137.969 155 137.969H215C231.569 137.969 245 151.4 245 167.969V182.969M215 87.9688C215 104.537 201.569 117.969 185 117.969C168.431 117.969 155 104.537 155 87.9688C155 71.4002 168.431 57.9688 185 57.9688C201.569 57.9688 215 71.4002 215 87.9688Z" stroke="#9E70FB" stroke-width="4" stroke-linecap="round"/>
</svg>
