<svg width="108" height="108" viewBox="0 0 108 108" fill="none" xmlns="http://www.w3.org/2000/svg">
<path d="M0.5 32C0.5 14.603 14.603 0.5 32 0.5H76C93.397 0.5 107.5 14.603 107.5 32V76C107.5 93.397 93.397 107.5 76 107.5H32C14.603 107.5 0.5 93.397 0.5 76V32Z" fill="#F0E7FE"/>
<path d="M0.5 32C0.5 14.603 14.603 0.5 32 0.5H76C93.397 0.5 107.5 14.603 107.5 32V76C107.5 93.397 93.397 107.5 76 107.5H32C14.603 107.5 0.5 93.397 0.5 76V32Z" stroke="#D7C4FC"/>
<path d="M56.5 68.6875L62.0972 74.1848C62.5227 74.6027 63.2046 74.6027 63.63 74.1848L74 64M34 76.5V71.5C34 65.9772 38.4772 61.5 44 61.5H49M64 41.5C64 47.0228 59.5228 51.5 54 51.5C48.4772 51.5 44 47.0228 44 41.5C44 35.9772 48.4772 31.5 54 31.5C59.5228 31.5 64 35.9772 64 41.5Z" stroke="#6826F7" stroke-width="3" stroke-linecap="round"/>
</svg>