<svg width="108" height="108" viewBox="0 0 108 108" fill="none" xmlns="http://www.w3.org/2000/svg">
<path d="M0 32C0 14.3269 14.3269 0 32 0H76C93.6731 0 108 14.3269 108 32V76C108 93.6731 93.6731 108 76 108H32C14.3269 108 0 93.6731 0 76V32Z" fill="#FDC632"/>
<path d="M77.5637 30.412C75.0822 27.9293 70.0633 28.9974 67.5841 31.4779L61.8251 37.168C60.6244 38.3693 58.9025 38.8902 57.2365 38.5561L37.1188 34.5219C35.4528 34.1878 33.7309 34.7087 32.5302 35.9101L29.5585 38.8832C28.5317 39.9106 28.9867 41.6646 30.3838 42.0645L51.025 47.9735L41.2574 57.746C40.6267 58.377 39.711 58.6304 38.8452 58.4135L34.4501 57.3123C33.5842 57.0953 32.6685 57.3487 32.0378 57.9798L29.858 60.1607C28.7249 61.2943 28.9126 63.1827 30.2469 64.073L36.7577 68.4173C37.8743 69.1624 38.8327 70.1212 39.5774 71.2384L43.9195 77.7524C44.8094 79.0874 46.6968 79.2752 47.8299 78.1416L50.0097 75.9606C50.6404 75.3296 50.8937 74.4135 50.6768 73.5472L49.5762 69.1499C49.3594 68.2836 49.6126 67.3675 50.2434 66.7364L60.011 56.9639L65.917 77.6155C66.3167 79.0133 68.0698 79.4685 69.0967 78.4412L72.0683 75.468C73.269 74.2667 73.7897 72.5439 73.4558 70.8771L69.4236 50.7493C69.0897 49.0825 69.6103 47.3597 70.811 46.1584L76.57 40.4683C79.0492 37.9879 80.0451 32.8946 77.5637 30.412Z" fill="white"/>
</svg>
