<svg width="306" height="294" viewBox="0 0 306 294" fill="none" xmlns="http://www.w3.org/2000/svg">
<path fill-rule="evenodd" clip-rule="evenodd" d="M148.825 3.66817C114.765 -1.21224 75.1826 -3.62668 51.0434 20.9504C26.9752 45.4552 33.0561 84.6761 35.5748 118.973C37.8436 149.867 43.3577 180.915 64.4535 203.552C86.2331 226.922 116.924 240.877 148.825 240.492C180.381 240.112 207.628 222.586 231.193 201.543C256.637 178.822 288.198 174.5 284.908 118.973C281.088 54.5049 247.692 67.1106 222.149 45.4681C199.825 26.5531 177.76 7.8143 148.825 3.66817Z" fill="#F7F3FE"/>
<path d="M99 41H173.5V85.5H219V190H99V41Z" fill="white"/>
<path fill-rule="evenodd" clip-rule="evenodd" d="M147 143.1C147 141.333 148.433 139.9 150.2 139.9H167.8C169.567 139.9 171 141.333 171 143.1C171 144.867 169.567 146.3 167.8 146.3H150.2C148.433 146.3 147 144.867 147 143.1Z" fill="#9E70FB"/>
<path d="M188.141 114.562L188.301 114.402C189.069 113.626 190.221 113.354 191.253 113.714C191.333 113.73 191.413 113.762 191.493 113.794C192.637 114.274 193.181 115.594 192.701 116.738L192.613 116.938C192.525 117.154 192.421 117.362 192.301 117.554L191.981 118.058L191.597 118.594C190.869 119.546 189.989 120.378 188.997 121.05C188.365 121.49 187.693 121.866 186.989 122.17C186.205 122.514 185.389 122.786 184.549 122.97C183.669 123.146 182.781 123.234 181.885 123.25H181.261C181.208 123.25 181.126 123.242 181.031 123.232C180.899 123.218 180.741 123.202 180.597 123.202C180.112 123.159 179.732 123.089 179.339 123.017C179.297 123.009 179.255 123.002 179.213 122.994C178.373 122.81 177.557 122.538 176.773 122.194C176.069 121.89 175.397 121.514 174.765 121.074C173.437 120.17 172.317 118.994 171.493 117.618C171.365 117.402 171.245 117.178 171.141 116.946L171.021 116.706C170.589 115.802 170.853 114.714 171.645 114.106C172.733 113.25 174.277 113.306 175.301 114.242L175.501 114.442L176.005 114.906C176.421 115.29 176.861 115.642 177.333 115.954C177.629 116.138 177.949 116.33 178.293 116.506C178.653 116.698 179.021 116.866 179.405 117.01C179.797 117.13 180.197 117.226 180.605 117.306L181.165 117.378H181.869C182.293 117.378 182.709 117.346 183.125 117.282C183.533 117.202 183.933 117.106 184.325 116.986C184.701 116.858 185.069 116.706 185.421 116.53C185.765 116.354 186.077 116.17 186.381 115.978C186.685 115.786 186.949 115.594 187.181 115.418L187.733 114.962C187.877 114.842 188.013 114.706 188.141 114.562Z" fill="#9E70FB"/>
<path d="M142.545 114.323C143.225 113.611 144.273 113.387 145.185 113.763C145.289 113.787 145.393 113.827 145.489 113.867C146.609 114.363 147.121 115.683 146.625 116.803L146.545 116.963C146.473 117.195 146.361 117.411 146.225 117.603C146.145 117.763 146.065 117.923 145.905 118.083C145.825 118.163 145.765 118.263 145.705 118.363C145.645 118.463 145.585 118.563 145.505 118.643C145.209 119.083 144.857 119.483 144.465 119.843C144.033 120.347 143.521 120.779 142.945 121.123C142.313 121.563 141.649 121.939 140.945 122.243C140.177 122.603 139.377 122.875 138.545 123.043C137.673 123.203 136.793 123.283 135.905 123.283H135.265C135.236 123.283 135.174 123.272 135.096 123.258C134.962 123.235 134.777 123.203 134.625 123.203C134.145 123.123 133.665 123.043 133.265 122.963C132.441 122.779 131.633 122.515 130.865 122.163C130.161 121.859 129.497 121.483 128.865 121.043C128.329 120.659 127.817 120.227 127.345 119.763C126.665 119.099 126.073 118.347 125.585 117.523C125.465 117.315 125.353 117.107 125.265 116.883L125.185 116.643C124.785 115.747 125.049 114.691 125.825 114.083C126.929 113.251 128.473 113.315 129.505 114.243L130.145 114.883C130.257 114.967 130.389 115.071 130.537 115.187C130.812 115.403 131.142 115.663 131.505 115.923C131.809 116.139 132.129 116.323 132.465 116.483C132.817 116.691 133.193 116.851 133.585 116.963C133.977 117.107 134.377 117.211 134.785 117.283C134.865 117.283 134.965 117.303 135.065 117.323C135.165 117.343 135.265 117.363 135.345 117.363H136.065C136.497 117.379 136.921 117.355 137.345 117.283C137.753 117.211 138.153 117.107 138.545 116.963C138.945 116.803 139.345 116.643 139.665 116.483C139.825 116.403 139.985 116.303 140.145 116.203C140.305 116.103 140.465 116.003 140.625 115.923C140.905 115.755 141.169 115.571 141.425 115.363C141.557 115.231 141.665 115.147 141.762 115.072C141.841 115.01 141.913 114.955 141.985 114.883L142.545 114.323Z" fill="#9E70FB"/>
<path d="M174 40.5H103C100.791 40.5 99 42.2909 99 44.5V186.5C99 188.709 100.791 190.5 103 190.5H215C217.209 190.5 219 188.709 219 186.5V85.5M174 40.5V83.5C174 84.6046 174.895 85.5 176 85.5H219M174 40.5L219 85.5" stroke="#9E70FB" stroke-width="4"/>
</svg>
