<svg width="108" height="108" viewBox="0 0 108 108" fill="none" xmlns="http://www.w3.org/2000/svg">
<path d="M0.5 32C0.5 14.603 14.603 0.5 32 0.5H76C93.397 0.5 107.5 14.603 107.5 32V76C107.5 93.397 93.397 107.5 76 107.5H32C14.603 107.5 0.5 93.397 0.5 76V32Z" fill="#F0E7FE"/>
<path d="M0.5 32C0.5 14.603 14.603 0.5 32 0.5H76C93.397 0.5 107.5 14.603 107.5 32V76C107.5 93.397 93.397 107.5 76 107.5H32C14.603 107.5 0.5 93.397 0.5 76V32Z" stroke="#D7C4FC"/>
<path d="M49.13 61.5718L47.8092 62.2827L49.13 61.5718ZM48.377 60.3066L47.2001 61.2366L48.377 60.3066ZM46.4282 58.87L45.7173 60.1908L45.7173 60.1908L46.4282 58.87ZM47.6934 59.623L46.7634 60.7999V60.7999L47.6934 59.623ZM77.2943 39.1156L78.7172 39.5903L77.2943 39.1156ZM78.8455 31.6728L77.4326 32.1763L78.8455 31.6728ZM68.8844 30.7057L69.3591 32.1286L68.8844 30.7057ZM76.3272 29.1545L75.8237 30.5674L76.3272 29.1545ZM37.3196 41.2352L36.8449 39.8122L37.3196 41.2352ZM29.6164 44.8287L30.8941 45.6146L29.6164 44.8287ZM36.2662 53.4002L36.9772 52.0794L36.2662 53.4002ZM29.2947 48.5441L30.6883 47.9893L29.2947 48.5441ZM66.7649 70.6804L65.3419 70.2058L66.7649 70.6804ZM63.1713 78.3836L62.3854 77.1059L63.1713 78.3836ZM54.5998 71.7338L55.9206 71.0228L54.5998 71.7338ZM59.4559 78.7053L60.0107 77.3117L59.4559 78.7053ZM61.005 49.1163C61.5908 48.5305 61.5908 47.5807 61.005 46.995C60.4193 46.4092 59.4695 46.4092 58.8837 46.995L61.005 49.1163ZM75.8714 38.6409L65.3419 70.2058L68.1878 71.1551L78.7172 39.5903L75.8714 38.6409ZM37.7942 42.6581L69.3591 32.1286L68.4097 29.2828L36.8449 39.8122L37.7942 42.6581ZM55.9206 71.0228L50.4508 60.8609L47.8092 62.2827L53.279 72.4447L55.9206 71.0228ZM47.1391 57.5492L36.9772 52.0794L35.5553 54.721L45.7173 60.1908L47.1391 57.5492ZM50.4508 60.8609C50.1236 60.253 49.88 59.7893 49.5539 59.3766L47.2001 61.2366C47.3256 61.3954 47.4335 61.5847 47.8092 62.2827L50.4508 60.8609ZM45.7173 60.1908C46.4153 60.5665 46.6046 60.6744 46.7634 60.7999L48.6234 58.4461C48.2107 58.12 47.747 57.8764 47.1391 57.5492L45.7173 60.1908ZM49.5539 59.3766C49.281 59.0313 48.9687 58.719 48.6234 58.4461L46.7634 60.7999C46.9255 60.928 47.072 61.0745 47.2001 61.2366L49.5539 59.3766ZM78.7172 39.5903C79.3852 37.5878 79.9206 35.9876 80.2186 34.7209C80.5113 33.4765 80.6512 32.2712 80.2585 31.1692L77.4326 32.1763C77.521 32.4246 77.5627 32.9098 77.2983 34.0339C77.0391 35.1356 76.5583 36.5817 75.8714 38.6409L78.7172 39.5903ZM69.3591 32.1286C71.4183 31.4417 72.8644 30.9609 73.9661 30.7017C75.0902 30.4373 75.5754 30.479 75.8237 30.5674L76.8308 27.7415C75.7288 27.3488 74.5235 27.4887 73.2791 27.7814C72.0124 28.0794 70.4122 28.6148 68.4097 29.2828L69.3591 32.1286ZM80.2585 31.1692C79.6885 29.5699 78.4301 28.3115 76.8308 27.7415L75.8237 30.5674C76.5744 30.835 77.165 31.4256 77.4326 32.1763L80.2585 31.1692ZM36.8449 39.8122C34.5695 40.5713 32.7651 41.1717 31.438 41.7501C30.1501 42.3115 28.9938 42.9778 28.3387 44.0429L30.8941 45.6146C31.0313 45.3914 31.4229 45.0293 32.6368 44.5002C33.8114 43.9882 35.4624 43.4359 37.7942 42.6581L36.8449 39.8122ZM36.9772 52.0794C34.8135 50.9147 33.2819 50.0887 32.2128 49.3837C31.1079 48.6551 30.7849 48.2319 30.6883 47.9893L27.9011 49.0989C28.3636 50.2609 29.3889 51.1152 30.5613 51.8882C31.7694 52.6849 33.4441 53.5846 35.5553 54.721L36.9772 52.0794ZM28.3387 44.0429C27.4027 45.5647 27.2403 47.4392 27.9011 49.0989L30.6883 47.9893C30.3781 47.2102 30.4542 46.3298 30.8941 45.6146L28.3387 44.0429ZM65.3419 70.2058C64.5641 72.5376 64.0118 74.1886 63.4998 75.3632C62.9707 76.5771 62.6086 76.9687 62.3854 77.1059L63.9571 79.6613C65.0222 79.0062 65.6885 77.8499 66.2499 76.562C66.8283 75.2349 67.4287 73.4305 68.1878 71.1551L65.3419 70.2058ZM53.279 72.4447C54.4154 74.5559 55.3151 76.2306 56.1118 77.4387C56.8848 78.611 57.7391 79.6364 58.9011 80.0989L60.0107 77.3117C59.7681 77.2151 59.3449 76.8921 58.6163 75.7872C57.9113 74.7181 57.0853 73.1865 55.9206 71.0228L53.279 72.4447ZM62.3854 77.1059C61.6702 77.5458 60.7898 77.6219 60.0107 77.3117L58.9011 80.0989C60.5608 80.7597 62.4353 80.5973 63.9571 79.6613L62.3854 77.1059ZM58.8837 46.995L47.1239 58.7547L49.2453 60.8761L61.005 49.1163L58.8837 46.995Z" fill="#6826F7"/>
</svg>
