<svg width="108" height="108" viewBox="0 0 108 108" fill="none" xmlns="http://www.w3.org/2000/svg">
<path d="M0.5 32C0.5 14.603 14.603 0.5 32 0.5H76C93.397 0.5 107.5 14.603 107.5 32V76C107.5 93.397 93.397 107.5 76 107.5H32C14.603 107.5 0.5 93.397 0.5 76V32Z" fill="#FFF7E1"/>
<path d="M0.5 32C0.5 14.603 14.603 0.5 32 0.5H76C93.397 0.5 107.5 14.603 107.5 32V76C107.5 93.397 93.397 107.5 76 107.5H32C14.603 107.5 0.5 93.397 0.5 76V32Z" stroke="#FFEBB4"/>
<path d="M26.5 76.5V71.5C26.5 65.9772 30.9772 61.5 36.5 61.5H56.5C62.0228 61.5 66.5 65.9772 66.5 71.5V76.5M81.5 76.5V71.5C81.5 65.9772 77.0228 61.5 71.5 61.5H70.875M60.8652 31.5198C61.0751 31.5067 61.2868 31.5 61.5 31.5C67.0228 31.5 71.5 35.9772 71.5 41.5C71.5 47.0228 67.0228 51.5 61.5 51.5C61.2868 51.5 61.0751 51.4933 60.8652 51.4802M56.5 41.5C56.5 47.0228 52.0228 51.5 46.5 51.5C40.9772 51.5 36.5 47.0228 36.5 41.5C36.5 35.9772 40.9772 31.5 46.5 31.5C52.0228 31.5 56.5 35.9772 56.5 41.5Z" stroke="#FCAF1A" stroke-width="3" stroke-linecap="round"/>
</svg>