<svg width="108" height="108" viewBox="0 0 108 108" fill="none" xmlns="http://www.w3.org/2000/svg">
<path d="M0.5 32C0.5 14.603 14.603 0.5 32 0.5H76C93.397 0.5 107.5 14.603 107.5 32V76C107.5 93.397 93.397 107.5 76 107.5H32C14.603 107.5 0.5 93.397 0.5 76V32Z" fill="#FFEBEE"/>
<path d="M0.5 32C0.5 14.603 14.603 0.5 32 0.5H76C93.397 0.5 107.5 14.603 107.5 32V76C107.5 93.397 93.397 107.5 76 107.5H32C14.603 107.5 0.5 93.397 0.5 76V32Z" stroke="#FFCDD2"/>
<path d="M65.0511 69.4477C64.46 68.8672 63.5103 68.8758 62.9298 69.4668C62.3493 70.0578 62.3579 71.0075 62.9489 71.588L65.0511 69.4477ZM80.0511 67.5702C80.6421 66.9897 80.6507 66.04 80.0702 65.4489C79.4897 64.8579 78.54 64.8493 77.9489 65.4298L80.0511 67.5702ZM68.7976 75.2298L67.7466 76.3L68.7976 75.2298ZM70.1115 75.2298L71.1625 76.3L70.1115 75.2298ZM54 80.5C54.8284 80.5 55.5 79.8284 55.5 79C55.5 78.1716 54.8284 77.5 54 77.5V80.5ZM77.5 54C77.5 54.8284 78.1716 55.5 79 55.5C79.8284 55.5 80.5 54.8284 80.5 54H77.5ZM55.5 41.5C55.5 40.6716 54.8284 40 54 40C53.1716 40 52.5 40.6716 52.5 41.5H55.5ZM55.0114 56.3672L54.1182 57.5723H54.1182L55.0114 56.3672ZM59.3568 61.4551C60.0224 61.9484 60.9618 61.8087 61.4551 61.1432C61.9484 60.4776 61.8087 59.5382 61.1432 59.0449L59.3568 61.4551ZM62.9489 71.588L67.7466 76.3L69.8487 74.1596L65.0511 69.4477L62.9489 71.588ZM71.1625 76.3L80.0511 67.5702L77.9489 65.4298L69.0604 74.1596L71.1625 76.3ZM67.7466 76.3C68.6948 77.2313 70.2143 77.2313 71.1625 76.3L69.0604 74.1596C69.2792 73.9447 69.6299 73.9447 69.8487 74.1596L67.7466 76.3ZM54 77.5C41.0213 77.5 30.5 66.9787 30.5 54H27.5C27.5 68.6355 39.3645 80.5 54 80.5V77.5ZM30.5 54C30.5 41.0213 41.0213 30.5 54 30.5V27.5C39.3645 27.5 27.5 39.3645 27.5 54H30.5ZM54 30.5C66.9787 30.5 77.5 41.0213 77.5 54H80.5C80.5 39.3645 68.6355 27.5 54 27.5V30.5ZM52.5 41.5V54.3588H55.5V41.5H52.5ZM54.1182 57.5723L59.3568 61.4551L61.1432 59.0449L55.9045 55.1622L54.1182 57.5723ZM52.5 54.3588C52.5 55.6258 53.1003 56.8179 54.1182 57.5723L55.9045 55.1622C55.6501 54.9736 55.5 54.6755 55.5 54.3588H52.5Z" fill="#FC4130"/>
</svg>